<?xml version="1.0" encoding="UTF-8" standalone="no"?>
<!-- Created with Inkscape (http://www.inkscape.org/) -->

<svg
   xmlns:dc="http://purl.org/dc/elements/1.1/"
   xmlns:cc="http://creativecommons.org/ns#"
   xmlns:rdf="http://www.w3.org/1999/02/22-rdf-syntax-ns#"
   xmlns:svg="http://www.w3.org/2000/svg"
   xmlns="http://www.w3.org/2000/svg"
   xmlns:sodipodi="http://sodipodi.sourceforge.net/DTD/sodipodi-0.dtd"
   xmlns:inkscape="http://www.inkscape.org/namespaces/inkscape"
   width="160"
   height="80"
   viewBox="0 0 160 80.000001"
   id="svg3607"
   version="1.1"
   inkscape:version="0.91 r13725"
   sodipodi:docname="arrow_left.svg">
  <defs
     id="defs3609" />
  <sodipodi:namedview
     id="base"
     pagecolor="#ffffff"
     bordercolor="#666666"
     borderopacity="1.0"
     inkscape:pageopacity="0.0"
     inkscape:pageshadow="2"
     inkscape:zoom="4.3835535"
     inkscape:cx="72.754711"
     inkscape:cy="36.407939"
     inkscape:document-units="px"
     inkscape:current-layer="layer1"
     showgrid="false"
     units="px"
     inkscape:window-width="1366"
     inkscape:window-height="746"
     inkscape:window-x="-8"
     inkscape:window-y="-8"
     inkscape:window-maximized="1" />
  <metadata
     id="metadata3612">
    <rdf:RDF>
      <cc:Work
         rdf:about="">
        <dc:format>image/svg+xml</dc:format>
        <dc:type
           rdf:resource="http://purl.org/dc/dcmitype/StillImage" />
        <dc:title />
      </cc:Work>
    </rdf:RDF>
  </metadata>
  <g
     inkscape:label="Layer 1"
     inkscape:groupmode="layer"
     id="layer1"
     transform="translate(0,-972.36216)">
    <path
       style="fill:#e6e6e6"
       id="path3619-9"
       d="m 150.43912,1007.4804 c -2.34562,3.1993 -4.75103,6.3565 -7.33503,9.3694 -1.00147,1.1677 -2.00419,2.3365 -3.07041,3.4454 -1.13614,1.1816 -2.3548,2.281 -3.53221,3.4215 -3.50765,2.7088 -4.91111,4.0345 -8.8833,6.1129 -1.69549,0.8871 -3.46211,1.6392 -5.24694,2.3291 -3.43113,1.3264 -7.25159,2.431 -10.9209,2.8232 -2.28944,0.2447 -4.60192,0.1675 -6.90287,0.2512 -4.25422,-0.2275 -8.522658,-0.2672 -12.762658,-0.6826 -2.83707,-0.278 -5.63596,-0.8676 -8.437529,-1.3944 -4.91523,-0.9241 -10.692331,-2.1956 -15.483347,-3.7471 -5.348971,-1.7322 -6.97831,-2.6964 -11.900419,-5.0455 -1.568863,-0.9176 -3.158006,-1.8014 -4.70659,-2.7528 -1.412552,-0.8679 -2.788957,-1.7934 -4.174524,-2.7037 -4.151737,-2.7277 -8.225783,-5.56 -12.198566,-8.5418 -3.012382,-2.2459 -5.493454,-5.0671 -7.716054,-8.0724 -0.193856,-0.2821 -0.387712,-0.5643 -0.581568,-0.8465 l 6.76562,-0.3928 0,0 0.512571,0.8232 c 2.035212,2.952 4.362024,5.6907 7.188993,7.9236 0.758848,0.6039 1.507401,1.2208 2.276544,1.8115 1.366755,1.0496 4.487868,3.3248 5.821842,4.274 2.12621,1.5128 5.403006,3.7927 7.561358,5.1579 1.489452,0.9422 3.019753,1.8181 4.529629,2.7271 4.826893,2.3944 6.149094,3.2449 11.439691,5.0095 4.696515,1.5665 10.302079,2.8567 15.137719,3.7398 2.86568,0.5232 5.76347,0.8539 8.63751,1.3291 1.02992,0.1703 2.04822,-0.052 3.07233,0.1507 2.197728,-0.072 4.405718,0.4663 6.593178,0.2397 1.88835,-0.1934 3.75796,-0.5752 5.60034,-1.0322 5.3674,-1.3315 10.51819,-3.6006 15.07098,-6.7404 1.42529,-0.983 2.72807,-2.1327 4.09211,-3.199 1.14659,-1.1282 2.33862,-2.2119 3.43977,-3.3845 1.03222,-1.0991 2.00271,-2.2558 2.95504,-3.4248 2.38013,-2.9218 4.58808,-6.0198 6.26658,-9.4024 z"
       inkscape:connector-curvature="0"
       sodipodi:nodetypes="csscccscccsccscccccccccccsccccccccccc" />
    <path
       style="fill:#e6e6e6"
       id="path3621-1"
       d="m 34.264368,1000.9584 c 0.225431,0.1339 0.436854,0.2949 0.676292,0.4019 2.813743,1.2565 5.881917,1.9377 8.889614,2.5191 3.679445,0.7111 5.43576,0.8918 9.150938,1.3898 3.488562,0.3097 5.704124,0.6242 9.218177,0.4637 0.426463,-0.019 -3.960054,0.1168 -3.54468,0.018 1.19551,-0.2837 4.730003,-0.4402 5.949664,-0.589 2.19219,-0.2675 3.125847,-0.4815 5.189602,-0.8829 l 6.304498,0.8807 0,0 c -3.124157,0.5504 -6.283564,1.1061 -9.460061,1.2379 -3.35546,0.1393 -6.714456,0.1902 -10.072691,0.2177 -4.428238,0.036 -4.836393,-0.1154 -9.227543,-0.5308 -3.875218,-0.5365 -5.386939,-0.7006 -9.249133,-1.4185 -3.344926,-0.6218 -6.753968,-1.3076 -9.924937,-2.5865 -0.295316,-0.1192 -0.560743,-0.302 -0.841115,-0.453 z"
       inkscape:connector-curvature="0"
       sodipodi:nodetypes="ccccccccccccccccc" />
    <path
       style="fill:#e6e6e6"
       id="path3637-6"
       d="m 34.629185,1001.5513 c 1.061286,2.2165 2.032109,4.4751 2.764689,6.8244 0.291607,0.9351 0.64617,1.8611 0.793372,2.8295 0.186314,1.2257 0.134169,2.476 0.201253,3.7139 -0.31758,5.8615 -1.453867,11.6244 -2.774618,17.3289 0,0 -6.352263,-0.1694 -6.352263,-0.1694 l 0,0 c 0.639528,-2.0279 1.030157,-3.1625 1.548354,-5.3035 0.93662,-3.8696 1.600087,-7.8114 1.588784,-11.8054 -0.138591,-1.195 -0.176241,-2.406 -0.415773,-3.5849 -0.193708,-0.9533 -0.551305,-1.867 -0.878143,-2.7832 -0.833548,-2.3369 -1.921742,-4.637 -3.452461,-6.6008 0,0 6.976806,-0.4495 6.976806,-0.4495 z"
       inkscape:connector-curvature="0" />
  </g>
</svg>
