<?xml version="1.0" encoding="UTF-8" standalone="no"?>
<!-- Created with Inkscape (http://www.inkscape.org/) -->

<svg
   xmlns:dc="http://purl.org/dc/elements/1.1/"
   xmlns:cc="http://creativecommons.org/ns#"
   xmlns:rdf="http://www.w3.org/1999/02/22-rdf-syntax-ns#"
   xmlns:svg="http://www.w3.org/2000/svg"
   xmlns="http://www.w3.org/2000/svg"
   xmlns:sodipodi="http://sodipodi.sourceforge.net/DTD/sodipodi-0.dtd"
   xmlns:inkscape="http://www.inkscape.org/namespaces/inkscape"
   width="200"
   height="60"
   viewBox="0 0 200 60.000001"
   id="svg2"
   version="1.1"
   inkscape:version="0.91 r13725"
   sodipodi:docname="drawing2.svg">
  <defs
     id="defs4" />
  <sodipodi:namedview
     id="base"
     pagecolor="#ffffff"
     bordercolor="#666666"
     borderopacity="1.0"
     inkscape:pageopacity="0.0"
     inkscape:pageshadow="2"
     inkscape:zoom="4.37"
     inkscape:cx="108.4965"
     inkscape:cy="46.315789"
     inkscape:document-units="px"
     inkscape:current-layer="layer1"
     showgrid="false"
     units="px"
     inkscape:window-width="1080"
     inkscape:window-height="1858"
     inkscape:window-x="1358"
     inkscape:window-y="-8"
     inkscape:window-maximized="1" />
  <metadata
     id="metadata7">
    <rdf:RDF>
      <cc:Work
         rdf:about="">
        <dc:format>image/svg+xml</dc:format>
        <dc:type
           rdf:resource="http://purl.org/dc/dcmitype/StillImage" />
        <dc:title></dc:title>
      </cc:Work>
    </rdf:RDF>
  </metadata>
  <g
     inkscape:label="Layer 1"
     inkscape:groupmode="layer"
     id="layer1"
     transform="translate(0,-992.3622)">
    <path
       id="path3356"
       d="m 158.97335,1006.2098 c 1.10223,2.6536 2.38082,5.2376 3.29091,7.9679 0.24834,0.745 0.45323,1.5038 0.67985,2.2557 1.22293,4.128 1.4925,8.4299 1.64402,12.7063 0.0402,2.7114 0.21973,5.4389 -0.16357,8.1357 -0.0947,0.6666 -0.19524,1.3357 -0.37349,1.985 -0.16765,0.6106 -0.44034,1.1874 -0.66051,1.7812 -0.61542,1.0189 -0.96332,1.8046 -1.88671,2.5755 -0.32759,0.2735 -0.70342,0.501 -1.10389,0.6484 -1.09927,0.4046 -3.57341,-0.082 -4.15181,-0.2741 -0.35834,-0.1191 -0.5049,-0.5616 -0.75735,-0.8424 -0.18826,-0.3936 -0.4552,-0.7584 -0.56479,-1.1807 -0.5541,-2.1352 0.54537,-4.299 1.39003,-6.1792 0.81526,-1.8148 1.71812,-3.5889 2.57233,-5.3857 2.30641,-4.7672 3.50259,-9.924 4.58778,-15.0735 0.11589,-0.5838 0.22841,-1.1682 0.34766,-1.7513 0.0781,-0.3818 0.13353,-0.7697 0.24429,-1.1433 0.37067,-1.2504 2.56188,0.9475 2.64692,1.0628 0.51911,0.7036 0.26047,1.7303 0.44308,2.5853 0.25594,1.1985 0.58121,2.3811 0.87182,3.5716 0.41019,1.2863 0.76467,2.5917 1.23059,3.8589 0.73872,2.0091 2.05418,4.9952 3.22141,6.8443 0.53589,0.8489 1.09156,1.7116 1.82918,2.3926 1.82742,1.687 1.68862,1.887 2.10238,1.1393 0.589,-0.391 1.25522,-0.6852 1.76701,-1.1729 1.18126,-1.1256 1.962,-2.745 2.54764,-4.2262 0.48285,-1.2212 1.13178,-3.461 1.27007,-4.7981 0.0818,-0.7907 0.006,-1.5899 0.009,-2.3848 -0.12522,-0.7539 -0.17025,-1.5256 -0.37566,-2.2617 -0.39759,-1.4248 -1.0812,-2.732 -2.1448,-3.7788 -1.03521,-1.0188 -2.65849,-1.901 -3.9774,-2.4592 -0.7176,-0.3037 -1.47299,-0.509 -2.20948,-0.7635 -0.74014,-0.1075 -1.47291,-0.3466 -2.22041,-0.3224 -0.1847,0.01 -0.22085,0.3076 -0.37691,0.4066 -0.79054,0.5014 -1.67623,0.8477 -2.44438,1.3828 -1.63676,1.1401 -3.02532,2.6367 -4.46699,3.9957 -0.65787,0.6201 -1.33019,1.2247 -1.99529,1.8371 -0.63819,0.5059 -1.24661,1.0519 -1.91458,1.5178 -1.5837,1.1047 -3.55879,2.1557 -5.47912,2.5159 -1.61345,0.3026 -3.20024,-0.099 -4.80481,-0.2901 -0.1824,-0.4531 -0.5703,-0.8715 -0.54718,-1.3594 0.095,-2.0056 1.79278,-3.7666 3.05797,-5.0244 1.11848,-1.1119 2.36294,-2.0911 3.58962,-3.0825 2.82528,-2.2832 5.13849,-3.8648 8.09092,-5.9686 3.21012,-2.2366 6.4098,-4.4864 9.57599,-6.7846 0,0 1.85182,0.1771 1.85182,0.1771 l 0,0 c -3.26201,2.267 -6.55205,4.4926 -9.81268,6.7618 -2.94555,2.0909 -5.25754,3.6512 -8.04676,5.9561 -1.18408,0.9785 -2.37648,1.9576 -3.44221,3.0638 -1.14746,1.191 -2.72775,2.9381 -2.76214,4.8158 -0.008,0.4316 0.36225,0.7835 0.54337,1.1753 -0.28144,0.1167 -1.12366,0.2286 -0.84432,0.3502 0.46448,0.2024 1.01846,0.023 1.51886,-0.056 1.93707,-0.3069 3.9541,-1.3433 5.55744,-2.4278 0.67907,-0.4593 1.2994,-0.9999 1.9491,-1.4999 2.75636,-2.4903 1.36917,-1.1992 4.1568,-3.8786 0.92601,-0.8407 3.37862,-3.0777 4.7161,-3.4517 2.95155,-0.8253 3.96295,-0.4678 6.51066,-0.053 0.73649,0.2634 1.49272,0.4772 2.20947,0.7904 1.33346,0.5827 2.96777,1.5009 4.00527,2.5476 1.07382,1.0832 1.74451,2.4155 2.13627,3.8746 0.20078,0.7478 0.24198,1.5295 0.36297,2.2943 -0.003,0.8082 0.0761,1.621 -0.0103,2.4245 -0.13805,1.2853 -0.84573,3.67 -1.29726,4.8417 -0.58971,1.5302 -1.32409,3.1376 -2.49547,4.334 -0.51043,0.5213 -1.17584,0.8641 -1.76377,1.2962 -1.33045,-0.017 -2.69271,0.2399 -3.99136,-0.05 -1.66013,-0.3702 -3.00407,-2.4835 -3.74329,-3.7105 -0.61569,-1.0218 -1.13061,-2.1029 -1.62863,-3.187 -1.4829,-3.2281 -1.69086,-4.1749 -2.80969,-7.5567 -0.33789,-1.1929 -0.69604,-2.3802 -1.01367,-3.5786 -0.22638,-0.8541 -0.89699,-1.7394 -0.61804,-2.5778 0.23645,-0.7106 1.25906,-0.8115 1.88337,-1.2252 0.0926,-0.061 -0.24051,0.067 -0.28792,0.1679 -0.19943,0.4227 -0.68427,2.7082 -0.72446,2.8849 -0.17585,0.7915 -0.81442,3.689 -0.99844,4.4175 -0.92514,3.6623 -2.12946,7.261 -3.70394,10.6968 -0.1167,0.2475 -2.3971,5.0783 -2.52569,5.3765 -0.78216,1.8135 -1.80433,3.9715 -1.20597,6.0067 0.11852,0.4031 0.39027,0.7443 0.5854,1.1164 1.9657,1.9517 0.0403,-0.4038 -0.42616,1.1214 -0.10681,0.3493 0.74295,0.034 1.09358,-0.068 1.49729,-0.4366 2.31656,-1.8329 3.06166,-3.0719 0.22544,-0.5819 0.50473,-1.1457 0.67631,-1.7457 0.18362,-0.6421 0.28978,-1.3052 0.38517,-1.9661 0.38781,-2.6875 0.16499,-5.4072 0.16222,-8.109 -0.15675,-4.2582 -0.41363,-8.5382 -1.60861,-12.6554 -0.22848,-0.7478 -0.4328,-1.5033 -0.68544,-2.2433 -0.93634,-2.7424 -2.24611,-5.3438 -3.54315,-7.9282 0,0 2.23168,-0.1103 2.23168,-0.1103 z"
       inkscape:connector-curvature="0"
       style="fill:#808080" />
    <path
       id="path3356-0"
       d="m 158.12134,1005.4919 c 1.10223,2.6536 2.38082,5.2376 3.29091,7.9679 0.24834,0.745 0.45323,1.5038 0.67985,2.2557 1.22293,4.128 1.4925,8.4299 1.64402,12.7063 0.0402,2.7114 0.21973,5.4389 -0.16357,8.1357 -0.0947,0.6666 -0.19524,1.3357 -0.37349,1.985 -0.16765,0.6106 -0.44034,1.1874 -0.66051,1.7812 -0.61542,1.0189 -0.96332,1.8046 -1.88671,2.5755 -0.32759,0.2735 -0.70342,0.501 -1.10389,0.6484 -1.09927,0.4046 -3.57341,-0.082 -4.15181,-0.2741 -0.35834,-0.1191 -0.5049,-0.5616 -0.75735,-0.8424 -0.18826,-0.3936 -0.4552,-0.7584 -0.56479,-1.1807 -0.5541,-2.1352 0.54537,-4.299 1.39003,-6.1792 0.81526,-1.8148 1.71812,-3.5889 2.57233,-5.3857 2.30641,-4.7672 3.50259,-9.924 4.58778,-15.0735 0.11589,-0.5838 0.22841,-1.1682 0.34766,-1.7513 0.0781,-0.3818 0.13353,-0.7697 0.24429,-1.1433 0.37067,-1.2504 2.56188,0.9475 2.64692,1.0628 0.51911,0.7036 0.26047,1.7303 0.44308,2.5853 0.25594,1.1985 0.58121,2.3811 0.87182,3.5716 0.41019,1.2863 0.76467,2.5917 1.23059,3.8589 0.73872,2.0091 2.05418,4.9952 3.22141,6.8443 0.53589,0.8489 1.09156,1.7116 1.82918,2.3926 1.82742,1.687 1.68862,1.887 2.10238,1.1393 0.589,-0.391 1.25522,-0.6852 1.76701,-1.1729 1.18126,-1.1256 1.962,-2.745 2.54764,-4.2262 0.48285,-1.2212 1.13178,-3.461 1.27007,-4.7981 0.0818,-0.7907 0.006,-1.5899 0.009,-2.3848 -0.12522,-0.7539 -0.17025,-1.5256 -0.37566,-2.2617 -0.39759,-1.4248 -1.0812,-2.732 -2.1448,-3.7788 -1.03521,-1.0188 -2.65849,-1.901 -3.9774,-2.4592 -0.7176,-0.3037 -1.47299,-0.509 -2.20948,-0.7635 -0.74014,-0.1075 -1.47291,-0.3466 -2.22041,-0.3224 -0.1847,0.01 -0.22085,0.3076 -0.37691,0.4066 -0.79054,0.5014 -1.67623,0.8477 -2.44438,1.3828 -1.63676,1.1401 -3.02532,2.6367 -4.46699,3.9957 -0.65787,0.6201 -1.33019,1.2247 -1.99529,1.8371 -0.63819,0.5059 -1.24661,1.0519 -1.91458,1.5178 -1.5837,1.1047 -3.55879,2.1557 -5.47912,2.5159 -1.61345,0.3026 -3.20024,-0.099 -4.80481,-0.2901 -0.1824,-0.4531 -0.5703,-0.8715 -0.54718,-1.3594 0.095,-2.0056 1.79278,-3.7666 3.05797,-5.0244 1.11848,-1.1119 2.36294,-2.0911 3.58962,-3.0825 2.82528,-2.2832 5.13849,-3.8648 8.09092,-5.9686 3.21012,-2.2366 6.4098,-4.4864 9.57599,-6.7846 0,0 1.85182,0.1771 1.85182,0.1771 l 0,0 c -3.26201,2.267 -6.55205,4.4926 -9.81268,6.7618 -2.94555,2.0909 -5.25754,3.6512 -8.04676,5.9561 -1.18408,0.9785 -2.37648,1.9576 -3.44221,3.0638 -1.14746,1.191 -2.72775,2.9381 -2.76214,4.8158 -0.008,0.4316 0.36225,0.7835 0.54337,1.1753 -0.28144,0.1167 -1.12366,0.2286 -0.84432,0.3502 0.46448,0.2024 1.01846,0.023 1.51886,-0.056 1.93707,-0.3069 3.9541,-1.3433 5.55744,-2.4278 0.67907,-0.4593 1.2994,-0.9999 1.9491,-1.4999 2.75636,-2.4903 1.36917,-1.1992 4.1568,-3.8786 0.92601,-0.8407 3.37862,-3.0777 4.7161,-3.4517 2.95155,-0.8253 3.96295,-0.4678 6.51066,-0.053 0.73649,0.2634 1.49272,0.4772 2.20947,0.7904 1.33346,0.5827 2.96777,1.5009 4.00527,2.5476 1.07382,1.0832 1.74451,2.4155 2.13627,3.8746 0.20078,0.7478 0.24198,1.5295 0.36297,2.2943 -0.003,0.8082 0.0761,1.621 -0.0103,2.4245 -0.13805,1.2853 -0.84573,3.67 -1.29726,4.8417 -0.58971,1.5302 -1.32409,3.1376 -2.49547,4.334 -0.51043,0.5213 -1.17584,0.8641 -1.76377,1.2962 -1.33045,-0.017 -2.69271,0.2399 -3.99136,-0.05 -1.66013,-0.3702 -3.00407,-2.4835 -3.74329,-3.7105 -0.61569,-1.0218 -1.13061,-2.1029 -1.62863,-3.187 -1.4829,-3.2281 -1.69086,-4.1749 -2.80969,-7.5567 -0.33789,-1.1929 -0.69604,-2.3802 -1.01367,-3.5786 -0.22638,-0.8541 -0.89699,-1.7394 -0.61804,-2.5778 0.23645,-0.7106 1.25906,-0.8115 1.88337,-1.2252 0.0926,-0.061 -0.24051,0.067 -0.28792,0.1679 -0.19943,0.4227 -0.68427,2.7082 -0.72446,2.8849 -0.17585,0.7915 -0.81442,3.689 -0.99844,4.4175 -0.92514,3.6623 -2.12946,7.261 -3.70394,10.6968 -0.1167,0.2475 -2.3971,5.0783 -2.52569,5.3765 -0.78216,1.8135 -1.80433,3.9715 -1.20597,6.0067 0.11852,0.4031 0.39027,0.7443 0.5854,1.1164 1.9657,1.9517 0.0403,-0.4038 -0.42616,1.1214 -0.10681,0.3493 0.74295,0.034 1.09358,-0.068 1.49729,-0.4366 2.31656,-1.8329 3.06166,-3.0719 0.22544,-0.5819 0.50473,-1.1457 0.67631,-1.7457 0.18362,-0.6421 0.28978,-1.3052 0.38517,-1.9661 0.38781,-2.6875 0.16499,-5.4072 0.16222,-8.109 -0.15675,-4.2582 -0.41363,-8.5382 -1.60861,-12.6554 -0.22848,-0.7478 -0.4328,-1.5033 -0.68544,-2.2433 -0.93634,-2.7424 -2.24611,-5.3438 -3.54315,-7.9282 0,0 2.23168,-0.1103 2.23168,-0.1103 z"
       inkscape:connector-curvature="0"
       style="fill:#f9f9f9" />
    <path
       style="fill:#0000ff"
       id="path3395"
       d="m 15.845515,1000.2768 c -0.959258,-0 -1.918519,-6e-4 -2.877778,-7e-4 -1.709847,-0.095 -2.41229,0.6012 -3.5789421,1.7532 -1.186961,1.3259 -2.2072,2.824 -2.834463,4.4987 -0.105904,0.2827 -0.184997,0.5748 -0.277496,0.8622 -0.502621,1.9063 -0.363895,2.8816 0.838995,4.4457 0.938077,1.0265 1.666106,1.0184 2.9874091,1.0907 -0.09579,0 -0.3821591,0 -0.2873671,-0.01 1.1740581,-0.1751 0.6427961,0.049 1.8509481,-0.2713 0.907925,-0.2406 1.535975,-0.608 2.287316,-1.1436 1.061598,-1.0029 1.199143,-2.3184 1.421137,-3.6868 0.190545,-1.6526 0.478163,-3.2914 0.812148,-4.9203 0.04532,-0.2502 0.193867,-1.0549 0.238726,-1.353 0.01727,-0.1148 -0.07551,-0.3523 0.04034,-0.3458 0.355533,0.02 0.778623,0.1165 0.989038,0.4038 0.142369,0.1944 -0.127408,0.4649 -0.180669,0.6999 -0.06508,0.2871 -0.116142,0.5772 -0.174213,0.8658 -0.285841,1.5781 -0.423946,3.1773 -0.495839,4.7779 -0.0305,1.385 0.552308,2.678 1.054562,3.9404 0.248228,0.5508 0.469507,1.1369 0.845194,1.6194 0.249471,0.3204 0.58744,0.5484 0.915987,0.777 0.628255,0.3816 1.330023,0.5708 2.052215,0.6631 -0.292109,-0.01 -0.587233,0.012 -0.876326,-0.031 -0.06639,-0.01 0.130016,-0.038 0.188239,-0.072 0.240081,-0.1378 0.396892,-0.4611 0.549765,-0.6789 0.03602,-0.063 0.07203,-0.1251 0.108049,-0.1877 0,0 1.132095,0.058 1.132095,0.058 l 0,0 c -0.03677,0.066 -0.07354,0.1323 -0.110316,0.1985 -0.685127,0.9792 -0.564504,0.9187 -2.110188,0.8738 -0.725806,-0.1095 -1.428642,-0.3182 -2.052851,-0.7173 -0.97143,-0.6992 -1.306441,-1.3404 -1.747931,-2.4618 -0.506071,-1.2785 -1.101726,-2.5848 -1.06299,-3.9876 0.08226,-1.6058 0.229409,-3.209 0.508548,-4.7939 0.0556,-0.2903 0.10608,-0.5817 0.166797,-0.8711 0.05007,-0.2386 -0.03013,-0.5669 0.165489,-0.7124 1.428184,-1.0621 1.313025,-0.5975 1.210493,8e-4 -0.02988,0.1744 -0.236182,1.2657 -0.253119,1.3557 -0.335825,1.6267 -0.611508,3.2656 -0.806763,4.9155 -0.218512,1.3972 -0.359893,2.7354 -1.424455,3.7741 -0.543469,0.3953 -0.754865,0.5903 -1.393839,0.8706 -1.471369,0.6454 -3.080922,0.6621 -4.6571251,0.6159 -1.355599,-0.086 -2.064709,-0.1174 -3.000159,-1.186 -0.6529781,-0.8837 -1.1369029,-1.7583 -1.129939,-2.8992 0.0028,-0.458 0.2035382,-1.2244 0.3003729,-1.6525 0.093549,-0.2907 0.1733237,-0.5863 0.2806457,-0.8722 0.6324424,-1.6851 1.6566034,-3.1949 2.8383424,-4.5405 0.725995,-0.7369 1.506625,-1.5999 2.5742871,-1.8123 0.199402,-0.04 0.777385,-0.03 0.988591,-0.031 0.956613,0 1.913227,10e-4 2.869839,-6e-4 0,0 1.117196,0.177 1.117196,0.177 z"
       inkscape:connector-curvature="0" />
    <path
       style="fill:#0000ff"
       id="path3397"
       d="m 25.509005,1002.4941 c -0.04045,1.8133 0.0284,3.626 0.07794,5.4384 0.0593,2.1168 0.06053,4.2354 0.261251,6.3449 0.02531,0.1964 0.0847,0.7633 0.15513,1.0069 0.01042,0.036 0.100464,0.093 0.06293,0.093 -0.365721,2e-4 -0.756982,0.051 -1.093228,-0.093 -0.110445,-0.047 0.03015,-0.2385 0.0386,-0.3583 0.01365,-0.1936 0.01846,-0.3876 0.02769,-0.5814 0.04453,-1.5778 0.04188,-3.1565 0.03787,-4.7347 0.07624,-1.6457 0.627832,-3.2133 1.309532,-4.6969 0.53262,-0.9557 1.278845,-1.6874 2.352481,-1.9508 0.484704,0.01 0.974688,-0.047 1.454113,0.025 0.207443,0.031 0.66712,0.5873 0.737314,0.6824 0.495034,0.671 0.75168,1.436 1.022769,2.2137 0.392866,1.2821 0.58285,2.6115 0.868386,3.9186 0.159319,1.0059 0.485437,1.9554 0.901756,2.8794 0.227309,0.4501 0.501029,1.0381 1.060975,1.1376 0.119119,0.021 0.241737,0.011 0.362606,0.016 -1.12703,-0.057 -0.860431,0.013 -0.389032,-0.1021 0.286959,-0.07 0.297959,-0.094 0.545481,-0.2227 0,0 1.124482,0.1198 1.124482,0.1198 l 0,0 c -0.746651,0.4435 -1.510503,0.3972 -2.395214,0.3713 -0.123562,-0.017 -0.250567,-0.016 -0.370686,-0.05 -0.557505,-0.1548 -0.828866,-0.7554 -1.062275,-1.2232 -0.412052,-0.9325 -0.73159,-1.8918 -0.893917,-2.9026 -0.283122,-1.3022 -0.465017,-2.6279 -0.85517,-3.9053 -0.270136,-0.7648 -0.525396,-1.52 -1.033759,-2.1675 -0.11677,-0.1487 -0.247542,-0.2886 -0.394381,-0.4077 -0.102239,-0.083 -0.461267,-0.1303 -0.345058,-0.1921 0.229306,-0.1221 0.518922,-0.026 0.778383,-0.039 -1.074094,0.2012 -1.824276,0.9147 -2.36427,1.8462 -0.685873,1.4665 -1.229308,3.0169 -1.303885,4.6489 -0.0054,1.5797 -0.0052,3.1595 -0.0322,4.739 -0.006,0.1956 -0.0091,0.3913 -0.01796,0.5868 -0.006,0.1329 0.09653,0.3477 -0.02655,0.3982 -1.467962,0.6022 -1.243281,-0.1132 -1.369167,-1.0469 -0.189279,-2.1125 -0.173369,-4.2333 -0.23604,-6.3519 -0.05583,-1.8137 -0.136395,-3.6267 -0.129318,-5.4416 0,0 1.132427,0 1.132427,0 z"
       inkscape:connector-curvature="0" />
    <path
       style="fill:#0000ff"
       id="path3405"
       d="m 56.548638,1001.4283 c -0.751873,-0.3716 -1.533171,-0.7768 -2.360334,-0.9578 -0.218674,-0.048 -0.447593,-0.1364 -0.665897,-0.087 -0.131458,0.03 0.249555,0.102 0.374333,0.153 -0.241023,0.1715 -0.513454,0.3059 -0.723069,0.5146 -1.052384,1.0482 -1.860369,3.2683 -1.66147,4.7391 0.06164,0.4559 0.266252,0.8806 0.399378,1.3209 0.520729,0.8731 0.737012,1.3759 1.473644,2.0806 0.795075,0.7605 1.850377,1.2895 2.889326,1.6233 0.285375,0.092 0.58191,0.1441 0.872865,0.2162 -0.122789,-0.069 -0.405765,-0.072 -0.368365,-0.2075 0.0674,-0.2448 0.417301,-0.3042 0.565891,-0.5101 0.18736,-0.2597 0.310768,-0.5625 0.424068,-0.862 0.396846,-1.0491 0.500161,-2.182 0.625315,-3.2855 0.21072,-1.4111 0.146059,-2.8542 0.394998,-4.2587 0.113819,-0.6163 0.116523,-0.7856 1.25259,-0.2047 0.125644,0.064 0.0077,0.2822 0.0094,0.4233 0.0044,0.3567 0.0039,1.0783 0.0043,1.4099 -0.0014,1.3919 0.108129,2.7776 0.601924,4.0919 0.336237,0.8949 0.628006,1.3598 1.083574,2.1938 0.463683,0.7557 0.956086,1.5065 1.581202,2.1414 0.111874,0.1136 0.22135,0.2356 0.35886,0.3164 0.09475,0.056 0.429077,0.086 0.319294,0.082 -0.260017,-0.01 -0.516152,-0.067 -0.774229,-0.1002 0.830124,-0.5246 1.428707,-1.314 1.845217,-2.1909 0,0 1.124641,0.05 1.124641,0.05 l 0,0 c -0.424767,0.904 -1.040902,1.6937 -1.85217,2.2867 -0.487611,0.032 -0.974274,0.1048 -1.462835,0.096 -0.256086,0 -0.528432,-0.3107 -0.667398,-0.4591 -0.610075,-0.6516 -1.099512,-1.4048 -1.557262,-2.1671 -0.447728,-0.8271 -0.756106,-1.3294 -1.088148,-2.2158 -0.496094,-1.3242 -0.608611,-2.7216 -0.6199,-4.1234 -0.0043,-0.4383 -0.0063,-0.9626 -0.02135,-1.4063 -0.0046,-0.1365 -0.143674,-0.348 -0.02158,-0.4091 0.333964,-0.1672 0.73972,-0.1079 1.11208,-0.137 0.02303,-0 -0.02936,0.036 -0.04403,0.053 -0.02054,0.097 -0.04108,0.1934 -0.06163,0.2902 -0.265389,1.3996 -0.209974,2.8428 -0.426849,4.2507 -0.127264,1.1162 -0.235056,2.2559 -0.61953,3.3219 -0.126485,0.3507 -0.505636,1.3104 -0.987549,1.466 -0.58186,0.1879 -1.21486,0.1398 -1.82229,0.2097 -0.289594,-0.077 -0.584942,-0.1347 -0.868781,-0.2307 -2.128275,-0.7197 -3.316023,-1.8191 -4.352481,-3.803 -0.133404,-0.4516 -0.338405,-0.888 -0.400211,-1.3549 -0.198549,-1.4997 0.606427,-3.7392 1.642995,-4.8386 0.209089,-0.2218 0.480636,-0.375 0.720953,-0.5625 0.608322,-0.054 1.21443,-0.1474 1.824965,-0.1612 0.900425,-0.02 2.237286,0.7002 3.045467,1.0857 0,0 -1.11993,0.1172 -1.11993,0.1172 z"
       inkscape:connector-curvature="0" />
    <path
       style="fill:#0000ff"
       id="path3407"
       d="m 64.98793,1001.1272 c 1.806112,2.1058 3.224073,4.5138 4.723215,6.8412 0.850544,1.278 1.603892,2.6187 1.944814,4.1238 -0.532219,-0.3086 0.251626,0.479 0.09803,0.4557 -0.381753,-0.058 -0.798214,-0.076 -1.122628,-0.2858 -0.0311,-0.02 0.188414,-1.5707 0.200453,-1.6523 0.144421,-1.2693 0.406622,-2.5197 0.783574,-3.7394 0.275495,-0.9519 0.509524,-1.0922 1.779533,-0.7133 0.1447,0.043 0.168758,0.2506 0.24822,0.379 0.104228,0.1684 0.201807,0.3409 0.30271,0.5113 0.83252,1.452 1.509849,2.9822 2.20772,4.5011 0.09535,0.1986 0.273104,0.6457 0.465537,0.8353 0.03704,0.036 0.197861,0.058 0.145915,0.055 -0.345385,-0.017 -0.711298,0.03 -1.032726,-0.098 -0.09072,-0.036 0.05233,-0.1884 0.06798,-0.2848 0.02121,-0.1305 0.02825,-0.263 0.04238,-0.3945 -0.01748,-1.0679 -0.10293,-2.1336 -0.14653,-3.2009 0.0224,-0.7026 -0.115611,-1.4223 -0.02152,-2.1234 0.0663,-0.494 0.162169,-0.6424 0.3513,-1.1162 0.271881,-0.6125 0.7069,-1.1079 1.147064,-1.6013 0,0 1.110909,0.082 1.110909,0.082 l 0,0 c -0.43937,0.4794 -0.872341,0.9612 -1.144277,1.562 -0.181476,0.4499 -0.280662,0.6082 -0.344603,1.0784 -0.09487,0.6977 0.04016,1.4148 0.01734,2.114 0.04387,1.0728 0.133265,2.1435 0.155247,3.2168 -0.02103,0.2214 -0.06127,0.7328 -0.101248,0.7476 -1.291516,0.4779 -1.397482,0.1079 -1.819361,-0.8249 -0.689455,-1.5195 -1.366083,-3.0485 -2.215419,-4.4879 -0.103303,-0.1675 -0.199291,-0.3397 -0.309909,-0.5025 -0.07665,-0.1128 -0.361676,-0.2431 -0.251108,-0.323 0.242263,-0.1748 0.587301,-0.1344 0.886094,-0.1354 0.07103,-2e-4 -0.12335,0.077 -0.166428,0.1331 -0.134465,0.1763 -0.188424,0.4213 -0.252149,0.6245 -0.388334,1.2109 -0.661228,2.4547 -0.795637,3.7208 -0.05729,0.4186 -0.116405,0.8079 -0.154471,1.2265 -0.01254,0.1378 0.09115,0.3416 -0.02662,0.4144 -1.217744,0.7522 -1.111517,0.511 -1.227267,-0.1495 -0.329338,-1.4891 -1.070426,-2.8176 -1.90037,-4.087 -0.90158,-1.4123 -0.596935,-0.9408 -1.550197,-2.4092 -0.987926,-1.5218 -1.936942,-3.0919 -3.213292,-4.3962 0,0 1.117725,-0.097 1.117725,-0.097 z"
       inkscape:connector-curvature="0" />
    <path
       style="fill:#0000ff"
       id="path3409"
       d="m 81.812459,1009.9395 c -0.202989,-0.016 -0.733016,0.1137 -0.608968,-0.048 0.152903,-0.199 0.496909,-0.073 0.742338,-0.1258 0.267073,-0.057 0.536461,-0.1114 0.793879,-0.2026 0.97408,-0.3452 1.668841,-0.8988 2.443334,-1.5563 0.999775,-0.9386 1.667738,-2.1145 2.015947,-3.4376 0.07285,-0.2768 0.139744,-0.5578 0.163073,-0.8431 0.01977,-0.2418 -0.02312,-0.4846 -0.03469,-0.7269 -0.105963,-0.2095 -0.180617,-0.438 -0.317896,-0.6284 -0.385167,-0.5342 -1.061189,-0.9821 -1.680244,-1.1903 -0.207064,-0.07 -0.433795,-0.067 -0.641027,-0.1365 -0.131076,-0.044 0.273501,0.04 0.410251,0.06 -0.228574,0.097 -0.473406,0.1613 -0.685722,0.2898 -1.439129,0.8707 -2.029686,2.6774 -2.532208,4.1759 -0.316369,1.2708 -0.661088,2.6184 -0.369539,3.9304 0.05403,0.2432 0.145592,0.4764 0.218388,0.7147 0.341542,0.8655 0.852862,1.8216 1.784645,2.1695 0.176022,0.066 0.363766,0.094 0.545649,0.1414 0.681232,0.1322 1.375259,0.1764 2.067864,0.1887 0.137757,0 0.551106,0 0.413328,0 -0.244755,5e-4 -0.489509,0 -0.734263,0 0.893848,0.024 1.657304,0.01 2.50433,-0.3036 0.444697,-0.2181 0.236763,-0.098 0.626483,-0.3559 0,0 1.122384,0.1093 1.122384,0.1093 l 0,0 c -0.393019,0.2771 -0.183163,0.1483 -0.63222,0.382 -0.871425,0.3453 -1.580777,0.3712 -2.508584,0.3439 -1.323731,10e-4 -2.662649,0.053 -3.966909,-0.2205 -0.184411,-0.056 -0.375663,-0.092 -0.553234,-0.1665 -0.93134,-0.3909 -1.432796,-1.3735 -1.777138,-2.2564 -0.07339,-0.2441 -0.166021,-0.4832 -0.220156,-0.7323 -0.289336,-1.3312 0.05773,-2.693 0.381909,-3.9811 0.515702,-1.5248 1.105506,-3.3346 2.528288,-4.2671 0.212548,-0.1393 0.458638,-0.2191 0.687956,-0.3286 0.597079,-0.014 1.19469,-0.072 1.791236,-0.043 0.808835,0.039 1.88504,0.7717 2.327021,1.4254 0.139168,0.2059 0.212186,0.4494 0.318279,0.674 0.0095,0.251 0.05026,0.5027 0.02852,0.7529 -0.02519,0.29 -0.09389,0.5753 -0.168348,0.8567 -0.354251,1.3383 -1.015442,2.5389 -2.021473,3.4971 -0.255945,0.2222 -0.497311,0.4624 -0.767836,0.6665 -1.50903,1.139 -2.957835,1.3557 -4.813136,1.3489 0,0 1.118485,-0.1772 1.118485,-0.1772 z"
       inkscape:connector-curvature="0" />
    <path
       style="fill:#0000ff"
       id="path3411"
       d="m 98.531744,1001.7432 c -0.99126,-0.4323 -2.08272,-0.5608 -3.147877,-0.6845 -0.154015,-0 -0.603469,-0.073 -0.462046,-0.012 0.193271,0.084 0.506128,-0.09 0.626233,0.082 0.09267,0.1334 -0.317024,0.081 -0.462781,0.1529 -0.453761,0.2233 -0.696722,0.5693 -0.925651,0.9974 -0.02617,0.1359 -0.07846,0.2693 -0.07852,0.4077 -4.39e-4,0.8808 1.0434,1.5418 1.677422,1.9713 1.09275,0.6661 2.36284,0.9053 3.54246,1.362 1.423166,0.4877 2.631616,1.4144 3.804896,2.3294 0.48955,0.4585 1.64817,1.1687 1.10377,1.99 -0.0773,0.1166 -0.19227,0.2033 -0.2884,0.3049 -1.00947,0.7536 -2.26375,0.974 -3.46464,1.2431 -1.326796,0.2649 -2.674526,0.4027 -4.023826,0.483 -1.236397,0.047 -2.414185,0.2204 -3.463064,-0.4927 0,0 1.12407,-0.112 1.12407,-0.112 l 0,0 c 0.298742,0.1861 0.570801,0.3156 0.921945,0.3812 0.140585,0.026 0.55955,0 0.425616,0.054 -0.0361,0.014 -1.428196,0.031 -0.115652,3e-4 1.351375,-0.073 2.701425,-0.2042 4.031025,-0.4635 1.187036,-0.2648 2.424366,-0.4719 3.443046,-1.1822 0.18095,-0.1685 0.3701,-0.2813 0.41927,-0.5439 0.11369,-0.6073 -0.8707,-1.2147 -1.21163,-1.5623 -1.17445,-0.9134 -2.391286,-1.8138 -3.815996,-2.295 -1.18712,-0.4454 -2.45507,-0.7062 -3.54225,-1.3886 -0.695026,-0.483 -1.694226,-1.1327 -1.691477,-2.1002 4.24e-4,-0.1492 0.05408,-0.2935 0.08112,-0.4403 0.07129,-0.1421 0.124026,-0.2952 0.213864,-0.4264 0.728868,-1.0646 2.080237,-0.9776 3.238383,-0.9031 1.07354,0.1323 2.1716,0.272 3.16626,0.7212 0,0 -1.12556,0.1251 -1.12556,0.1251 z"
       inkscape:connector-curvature="0" />
    <path
       style="fill:#0000ff"
       id="path3413"
       d="m 107.34847,1002.2835 c -0.38435,1.1573 -0.46745,2.3789 -0.54061,3.5872 -0.0378,1.6969 -0.15388,3.4023 -0.0242,5.0971 0.0528,0.2153 0.0731,0.4413 0.15827,0.6461 0.53183,1.2789 2.09745,1.7302 3.29894,2.0756 0.0896,-0.345 1.19153,0.5647 1.35157,0.1409 0.0691,-0.1828 -0.5216,10e-4 -0.55411,-0.1917 -0.0348,-0.206 0.32112,-0.2724 0.44775,-0.4386 0.32675,-0.4287 0.41465,-0.7935 0.59624,-1.2932 0.39962,-1.5213 0.44538,-3.1106 0.40473,-4.675 -0.14838,-1.3195 -0.45732,-2.5981 -1.37632,-3.6038 -0.18759,-0.2052 -0.4071,-0.3789 -0.61065,-0.5683 -0.89664,-0.713 -1.92737,-1.1837 -3.05067,-1.3845 -0.28574,-0.044 -0.57447,-0.05 -0.86279,-0.055 0,0 1.11823,-0.1741 1.11823,-0.1741 l 0,0 c 0.28798,0.01 0.57628,0.022 0.8606,0.074 1.12115,0.2294 2.14709,0.721 3.03509,1.4499 0.20394,0.1953 0.42393,0.3751 0.61184,0.5859 0.92039,1.0326 1.23238,2.3319 1.38253,3.6733 0.0363,1.578 -0.008,3.1799 -0.40456,4.7158 -0.14758,0.4187 -0.55379,1.6613 -1.04404,1.828 -0.99494,0.3384 -2.01002,0.2766 -3.00003,0.058 -1.24064,-0.3741 -2.78557,-0.864 -3.3161,-2.1908 -0.0844,-0.2112 -0.10433,-0.4428 -0.1565,-0.6641 -0.12226,-1.7 0.002,-3.4095 0.0299,-5.1115 0.0638,-1.218 0.14823,-2.4456 0.51367,-3.6174 0,0 1.13121,0.036 1.13121,0.036 z"
       inkscape:connector-curvature="0" />
    <path
       style="fill:#0000ff"
       id="path3415"
       d="m 117.41099,1003.9208 c -0.39874,2.2575 -0.17718,4.5444 0.004,6.8104 0.0823,0.8817 0.12471,1.7667 0.20424,2.6486 0.0118,0.1308 0.024,0.2618 0.0446,0.3916 0.005,0.033 0.0661,0.097 0.0326,0.095 -0.37641,-0.02 -0.74686,-0.1031 -1.1203,-0.1546 0.0559,-1.1064 -0.019,-2.2179 0.15789,-3.3167 0.0441,-0.2736 0.11245,-0.5428 0.16868,-0.8142 0.1253,-0.4135 0.32454,-1.1577 0.54366,-1.5418 0.55682,-0.9759 1.53572,-1.416 2.53078,-1.8047 1.05843,-0.3319 2.13911,-0.5493 3.22114,-0.014 0.24236,0.12 0.75252,1.593 0.76996,1.6378 0.37067,1.2448 0.75617,2.4945 1.00056,3.7723 0.0482,0.2519 0.0757,0.5077 0.0989,0.7632 0.009,0.098 0.0958,0.2971 -0.003,0.2958 -0.42894,-0.01 -0.8324,-0.2078 -1.2486,-0.3117 -0.36204,-1.5737 0.13262,-2.4685 1.19412,-3.5927 0.63978,-0.5848 1.38856,-1.0214 2.25975,-1.0981 0.49231,0.036 0.99271,0.012 1.47692,0.1085 0.163,0.032 0.28718,0.1685 0.42061,0.2675 0.74373,0.5521 1.20225,1.344 1.65833,2.1301 0.65739,1.2133 1.11596,2.5175 1.3919,3.8668 0.097,0.5088 0.13679,1.0247 0.1615,1.5411 0,0 -1.12919,0.01 -1.12919,0.01 l 0,0 c -0.0215,-0.5104 -0.0573,-1.0206 -0.15089,-1.5238 -0.26939,-1.3384 -0.71873,-2.6321 -1.37987,-3.8306 -0.36207,-0.6139 -0.71782,-1.228 -1.23677,-1.7277 -0.1324,-0.1275 -0.27798,-0.2419 -0.42981,-0.3455 -0.13328,-0.091 -0.53877,-0.1241 -0.42256,-0.236 0.18264,-0.176 0.50398,-0.057 0.75596,-0.085 -0.86755,0.02 -1.62168,0.4533 -2.26717,1.0128 -1.03177,1.0529 -1.5672,1.9637 -1.17603,3.4681 -0.33623,0.1152 -0.65412,0.321 -1.00868,0.3456 -0.0926,0.01 0.0301,-0.1846 0.0255,-0.2773 -0.0126,-0.2516 -0.0329,-0.5038 -0.077,-0.7518 -0.22652,-1.2762 -0.62562,-2.5197 -1.00762,-3.7549 -0.13405,-0.3249 -0.24385,-0.6609 -0.40213,-0.9748 -0.10645,-0.211 -0.46338,-0.3689 -0.38868,-0.5932 0.0755,-0.2267 0.53416,-0.057 0.67068,-0.2535 0.0947,-0.1361 -0.33257,-0.014 -0.49738,0 -0.3431,0.038 -0.85956,0.1963 -1.18004,0.2848 -0.9738,0.3612 -1.97093,0.7683 -2.52635,1.7141 -0.21873,0.3724 -0.4208,1.1188 -0.54428,1.5215 -0.0561,0.2681 -0.12496,0.5337 -0.16832,0.8041 -0.17606,1.0977 -0.1016,2.2102 -0.12648,3.3161 -0.38492,0.057 -0.76613,0.1513 -1.15474,0.1704 -0.0157,8e-4 -0.0352,-0.3105 -0.0485,-0.5069 -0.0598,-0.8827 -0.11142,-1.766 -0.18435,-2.6479 -0.17213,-2.2755 -0.38751,-4.5653 -0.0324,-6.8364 0,0 1.11894,0.018 1.11894,0.018 z"
       inkscape:connector-curvature="0" />
    <path
       style="fill:#0000ff"
       id="path3417"
       d="m 136.73421,1011.1273 c 0.13236,-2.1356 0.17112,-4.2756 0.20694,-6.4147 -0.0407,-0.5572 0.0557,-1.9303 -0.31233,-2.4241 -0.1686,-0.2261 -0.44091,-0.256 -0.68642,-0.3301 -0.16483,-0.025 -0.56232,0.077 -0.49448,-0.076 0.0705,-0.1584 0.62666,-0.1179 0.51989,0.019 -0.12794,0.1637 -0.41498,0.046 -0.61481,0.1028 -0.21096,0.06 -0.41975,0.1375 -0.61026,0.2462 -0.61727,0.3524 -0.62221,0.5083 -1.03624,1.0999 -0.11415,0.2612 -0.26474,0.5092 -0.34243,0.7835 -0.41579,1.4674 -0.0702,3.0687 0.47524,4.4494 0.15605,0.395 0.35946,0.7697 0.53919,1.1545 0.80357,1.428 1.86754,2.7154 3.35457,3.4476 0.32581,0.141 0.67149,0.1998 1.02306,0.2251 0.0997,0.01 0.39955,0.014 0.29963,0.012 -0.27916,-0.01 -0.56045,0.013 -0.83733,-0.023 -0.11578,-0.015 0.23194,-0.027 0.34791,-0.04 0.75015,-0.1022 1.36876,-0.4863 1.95646,-0.9364 0.78937,-0.6392 1.51808,-1.3481 2.24317,-2.058 0.50239,-0.514 1.048,-1.0004 1.46845,-1.5869 0,0 1.12996,0.069 1.12996,0.069 l 0,0 c -0.41441,0.6008 -0.97621,1.0856 -1.48199,1.6067 -0.7274,0.711 -1.45529,1.4234 -2.24081,2.071 -0.58852,0.464 -1.20244,0.8727 -1.95952,0.9971 -1.01898,0.1317 -2.09929,0.1847 -3.0643,-0.2129 -1.47026,-0.7798 -2.52467,-2.081 -3.3214,-3.5235 -0.17995,-0.3892 -0.38326,-0.7684 -0.53985,-1.1675 -0.55208,-1.4072 -0.9021,-3.0315 -0.4945,-4.5284 0.0766,-0.2812 0.22819,-0.5363 0.34228,-0.8045 0.1567,-0.2372 0.28135,-0.499 0.47011,-0.7115 0.96475,-1.0866 2.70831,-0.9834 3.98245,-0.7529 0.30498,0.1199 0.51005,0.139 0.69747,0.4278 0.36176,0.5576 0.23717,1.8545 0.27879,2.4671 -0.0482,2.1377 -0.0967,4.2755 -0.16778,6.4125 0,0 -1.13112,0 -1.13112,0 z"
       inkscape:connector-curvature="0" />
    <path
       style="fill:#0000ff"
       id="path3419"
       d="m 19.412565,1032.8812 c 0.203109,0.3852 0.482821,1.1543 1.015361,1.1504 -1.071615,-0.034 -1.224935,0.2511 -0.963134,-0.1332 0,0 1.135615,0.054 1.135615,0.054 l 0,0 c -0.23055,0.5482 -0.01014,0.1671 -1.29914,0.238 -0.53328,-0.1829 -0.790663,-0.8032 -1.020994,-1.2688 0,0 1.132292,-0.041 1.132292,-0.041 z"
       inkscape:connector-curvature="0" />
    <path
       style="fill:#0000ff"
       id="path3421"
       d="m 31.431615,1024.0096 c -1.281712,-0.2211 -2.58392,-0.2864 -3.881274,-0.3444 0.154417,0.011 0.577771,-0.072 0.463252,0.033 -0.154856,0.1408 -0.417117,0.052 -0.618534,0.1085 -0.213069,0.06 -0.427325,0.1304 -0.618804,0.2416 -0.73613,0.4276 -1.12251,1.135 -1.534303,1.8434 -0.243038,0.5517 -0.630741,1.2164 -0.264859,1.8232 0.553983,0.9187 1.906277,1.5496 2.790198,2.0609 1.317706,0.8252 2.91785,1.1401 4.193254,2.0397 0.173247,0.1222 0.326507,0.2705 0.489761,0.4058 0.736324,0.9613 1.453726,2.1191 1.50759,3.3627 -0.06094,0.1049 -0.09576,0.2302 -0.182808,0.3148 -0.549759,0.5339 -2.140662,0.5133 -2.856168,0.5418 -1.358482,-0.05 -2.885651,0.2489 -4.180306,-0.2299 -0.158177,-0.058 -0.304844,-0.1443 -0.457265,-0.2165 -0.416889,-0.2771 -0.794306,-0.6049 -1.169543,-0.9344 0,0 1.117882,-0.096 1.117882,-0.096 l 0,0 c 0.370948,0.3224 0.741565,0.6475 1.164666,0.902 0.442076,0.193 0.476989,0.2379 0.964424,0.326 0.184036,0.033 0.429513,-0.072 0.557274,0.065 0.107511,0.1149 -0.627568,0.01 -0.471357,0.027 0.07766,0.01 1.318614,-0.012 1.377142,-0.013 0.699922,-0.024 2.246314,0 2.826915,-0.4374 0.08137,-0.062 0.122035,-0.1637 0.183052,-0.2455 -0.03536,-1.2125 -0.75284,-2.3526 -1.491257,-3.268 -0.162524,-0.1299 -0.316164,-0.2717 -0.487573,-0.3895 -1.276822,-0.8778 -2.850741,-1.2191 -4.159135,-2.0423 -0.917046,-0.5358 -2.277965,-1.1741 -2.830661,-2.1464 -0.365662,-0.6434 0.01412,-1.3253 0.275744,-1.908 0.412753,-0.7211 0.802973,-1.4598 1.53282,-1.9169 0.870005,-0.5448 2.033561,-0.3962 2.977329,-0.4204 1.30478,0.062 2.61427,0.1318 3.902759,0.3585 0,0 -1.120215,0.1548 -1.120215,0.1548 z"
       inkscape:connector-curvature="0" />
    <path
       style="fill:#0000ff"
       id="path3423"
       d="m 39.115795,1024.1256 c 1.264445,3.1331 2.543567,6.2589 3.684503,9.4402 0.371108,0.9471 0.657422,1.9424 1.147784,2.84 0.08208,0.1503 0.147669,0.3229 0.281615,0.4296 0.08868,0.071 0.434581,0.1142 0.334523,0.061 -0.204635,-0.1089 -0.43709,-0.1545 -0.655635,-0.2318 1.922342,-1.894 3.374097,-4.2138 4.701027,-6.5481 0.516867,-0.9534 0.966566,-1.9392 1.411041,-2.9274 0,0 1.122498,0.048 1.122498,0.048 l 0,0 c -0.456733,0.9911 -0.916008,1.9811 -1.446607,2.936 -1.350179,2.3373 -2.818754,4.6407 -4.675159,6.6126 -0.525171,0.085 -1.044474,0.2229 -1.575513,0.2543 -0.33932,0.02 -0.492736,-0.3674 -0.605408,-0.5858 -0.468102,-0.9077 -0.747184,-1.9009 -1.106156,-2.852 -1.122239,-3.1984 -2.394004,-6.3363 -3.743252,-9.4451 0,0 1.124739,-0.031 1.124739,-0.031 z"
       inkscape:connector-curvature="0" />
    <path
       style="fill:#0000ff"
       id="path3425"
       d="m 60.747401,1025.9061 c -0.615019,-0.3876 -1.542929,-0.9796 -2.264896,-1.1015 -0.162973,-0.027 -0.330441,-0.01 -0.495661,-0.013 0.15933,0.045 0.554993,-0.01 0.477989,0.1362 -0.117376,0.2236 -0.473818,0.1772 -0.700694,0.2881 -0.252515,0.1234 -0.496204,0.265 -0.734781,0.4136 -0.836556,0.5211 -1.306179,0.9676 -1.945466,1.7021 -0.631841,0.9215 -1.210397,2.3655 -1.098403,3.5057 0.02817,0.2868 0.123727,0.5629 0.185591,0.8443 0.687387,1.788 1.707781,3.5356 3.214244,4.763 0.323621,0.2636 0.689064,0.4714 1.033596,0.7071 0.872353,0.4973 1.779445,0.9762 2.765009,1.2092 0.250371,0.059 0.512628,0.058 0.762639,0.1187 0.147211,0.036 -0.487948,0.1039 -0.452388,-0.043 0.04204,-0.1741 0.337533,-0.1199 0.5063,-0.1798 0.846425,-0.7076 0.979918,-1.8071 1.129982,-2.8364 0.10273,-0.7925 0.138597,-1.5911 0.151231,-2.3895 -0.01121,-0.3919 -0.190218,-0.5387 -0.567162,-0.5984 -0.384754,-0.061 -0.741046,-0.071 -1.131919,-0.094 -1.020405,-0.041 -2.041292,-0.022 -3.061263,-0.07 0,0 1.100848,-0.1693 1.100848,-0.1693 l 0,0 c 1.020083,0.044 2.041084,0.028 3.061314,0.072 0.707067,0.048 1.688797,-0.075 1.728227,0.8615 -0.01685,0.8032 -0.05954,1.6062 -0.16305,2.4034 -0.151973,1.0688 -0.305798,2.183 -1.138218,2.9546 -0.171897,0.071 -0.330718,0.1935 -0.51569,0.2135 -2.107033,0.2276 -3.480123,-0.2883 -5.255014,-1.3479 -0.34537,-0.2417 -0.711619,-0.456 -1.036111,-0.725 -1.511268,-1.2531 -2.538661,-3.0186 -3.234581,-4.8257 -0.06434,-0.291 -0.163491,-0.5765 -0.193019,-0.8731 -0.08851,-0.8892 0.279303,-2.1334 0.688461,-2.9142 0.121511,-0.2318 0.278305,-0.4434 0.417457,-0.6652 0.641378,-0.7497 1.109273,-1.2013 1.949585,-1.7392 0.238697,-0.1528 1.115232,-0.6748 1.42982,-0.7349 0.569722,-0.1088 1.155348,-0.1042 1.733021,-0.1563 0.166995,0.014 0.336903,0.01 0.500985,0.043 0.785658,0.1636 1.606235,0.7205 2.276641,1.1384 0,0 -1.124624,0.1026 -1.124624,0.1026 z"
       inkscape:connector-curvature="0" />
    <path
       style="fill:#0000ff"
       id="path3429"
       d="m 76.015078,1026.8527 c 0.353934,0.4016 0.171338,0.1862 0.544893,0.6485 0,0 -1.119273,0.077 -1.119273,0.077 l 0,0 c -0.37865,-0.4555 -0.192427,-0.2443 -0.555225,-0.6366 0,0 1.129605,-0.089 1.129605,-0.089 z"
       inkscape:connector-curvature="0" />
    <path
       style="fill:#0000ff"
       id="path3431"
       d="m 76.108389,1029.4902 c 0.11349,0.9474 0.250384,1.8913 0.335716,2.8424 0.06046,0.7624 0.0845,1.5269 0.09469,2.2914 -0.0082,0.543 -0.0032,1.0797 0.06542,1.6185 0.03967,0.5161 0.134367,1.0162 0.252855,1.5184 0.06588,0.2802 0.09283,0.5665 0.115231,0.8527 0,0 -1.133823,0.01 -1.133823,0.01 l 0,0 c -0.02249,-0.2804 -0.04972,-0.561 -0.115009,-0.8355 -0.118723,-0.5058 -0.205433,-1.0114 -0.249383,-1.5301 -0.0704,-0.543 -0.07584,-1.0844 -0.06559,-1.6318 -0.0065,-0.7615 -0.02464,-1.5232 -0.08502,-2.2826 -0.08397,-0.9511 -0.21836,-1.8945 -0.347375,-2.8399 0,0 1.132285,-0.013 1.132285,-0.013 z"
       inkscape:connector-curvature="0" />
    <path
       style="fill:#0000ff"
       id="path3433"
       d="m 80.940433,1028.3685 c 0.235452,2.4729 0.462676,4.946 0.760809,7.4129 0.03578,0.2586 0.06704,0.5178 0.107328,0.7757 0.104792,0.6708 0.455879,1.0472 -1.021569,0.3942 -0.106304,-0.047 -0.01441,-0.2323 -0.01069,-0.3485 0.0058,-0.1805 0.02614,-0.3603 0.0392,-0.5404 0.164941,-1.1716 0.457654,-2.3442 0.957891,-3.4217 0.331778,-0.7147 0.607571,-1.0841 1.036155,-1.7376 0.467522,-0.6419 0.979537,-1.2554 1.582612,-1.7752 0.191523,-0.1651 0.528531,-0.4711 0.828405,-0.465 0.516287,0.01 1.026211,0.1163 1.539316,0.1745 0.154008,0.2165 0.334505,0.4163 0.462022,0.6494 0.253454,0.4633 0.708802,1.7079 0.866138,2.1587 0.439009,1.2578 0.768507,2.5339 1.082483,3.8271 0.223716,0.8747 0.321972,1.7746 0.523951,2.6536 0.0499,0.2172 0.112807,0.7142 0.36145,0.8387 -0.353281,-0.056 -0.742792,-0 -1.059843,-0.1681 -0.106446,-0.056 0.04298,-0.2364 0.05708,-0.3557 0.01804,-0.1526 0.02918,-0.306 0.03927,-0.4594 0.03704,-0.5633 0.04241,-1.1282 0.05135,-1.6924 0.0145,-1.4536 0.425425,-2.8512 0.936176,-4.1992 0.387618,-0.8672 0.684866,-1.4403 1.657479,-1.6263 0.452589,0 0.905907,-0.016 1.357766,0.01 0.181093,0.01 0.484251,0.2206 0.601419,0.294 0.659847,0.4133 1.09156,0.8315 1.615789,1.406 0.790623,0.898 1.287899,1.9328 1.514627,3.0985 0.08393,0.3986 0.05382,0.8105 0.120516,1.2109 0.04202,0.2522 0.164878,0.6308 0.235776,0.8674 0,0 -1.120424,0.033 -1.120424,0.033 l 0,0 c -0.213517,-0.706 -0.311668,-1.3547 -0.358728,-2.0895 -0.223006,-1.1447 -0.7142,-2.1592 -1.494863,-3.0376 -0.506952,-0.541 -0.986049,-0.9962 -1.631057,-1.3692 -0.116531,-0.067 -0.233989,-0.1349 -0.358825,-0.1852 -0.07759,-0.031 -0.327224,-0.048 -0.244191,-0.058 0.291801,-0.036 0.587848,-0.014 0.881772,-0.021 -0.986129,0.1219 -1.265022,0.6401 -1.668073,1.5075 -0.518493,1.3322 -0.914877,2.7195 -0.929276,4.1602 -0.0098,0.7213 -0.008,1.4479 -0.08015,2.1664 -0.01275,0.1271 0.06485,0.3241 -0.05006,0.3798 -0.368656,0.1785 -0.804839,0.1527 -1.207258,0.229 -0.21565,-0.2439 -0.272441,-0.6129 -0.337825,-0.9188 -0.187871,-0.8789 -0.280271,-1.776 -0.498393,-2.6492 -0.307729,-1.291 -0.635121,-2.5618 -1.081229,-3.8137 -0.161381,-0.4528 -0.615484,-1.6663 -0.887764,-2.1261 -0.12794,-0.2161 -0.314337,-0.3916 -0.471505,-0.5874 0.229961,-0.054 0.460325,-0.107 0.689884,-0.1629 0.134179,-0.033 -0.279875,0.032 -0.40373,0.093 -0.160082,0.079 -0.293091,0.2045 -0.43052,0.3185 -0.610432,0.506 -1.126616,1.1118 -1.596672,1.7474 -0.424322,0.639 -0.70734,1.0143 -1.034663,1.7144 -0.497842,1.0648 -0.786991,2.227 -0.935637,3.3882 -0.01013,0.1761 -0.02814,0.3519 -0.03039,0.5283 -0.0015,0.1177 0.125172,0.3014 0.01919,0.3525 -1.22065,0.5882 -1.126963,0.344 -1.221146,-0.3792 -0.0337,-0.2588 -0.06153,-0.5182 -0.0923,-0.7773 -0.269974,-2.4673 -0.4849,-4.942 -0.799709,-7.4032 0,0 1.130644,-0.022 1.130644,-0.022 z"
       inkscape:connector-curvature="0" />
    <path
       style="fill:#0000ff"
       id="path3435"
       d="m 104.7238,1029.0719 c -1.95454,1.2693 -3.09113,3.3506 -4.05879,5.4039 -0.0752,0.2525 -0.18945,0.4966 -0.2257,0.7576 -0.13657,0.9832 0.68471,1.4451 1.46484,1.7253 0.16744,0.015 0.59724,0.185 0.50231,0.046 -0.10069,-0.1472 -0.56959,0.089 -0.5284,-0.084 0.0492,-0.2072 0.41295,-0.1175 0.60033,-0.2188 0.65423,-0.3534 0.98092,-0.9412 1.32755,-1.5638 0.49039,-1.0817 0.62776,-2.2528 0.6814,-3.4251 0.003,-1.054 -0.009,-2.1137 0.36774,-3.1122 1.49033,-1.1163 1.84965,1.0322 2.0633,1.7715 1.07363,3.7153 -0.49973,-1.6451 0.64614,2.2456 0.44772,1.2646 0.77133,2.7387 1.83622,3.6478 0.29882,0.201 0.63485,0.2579 0.98767,0.2662 0.14261,0 0.57058,0 0.42794,0 -0.19536,-0 -0.39073,-0 -0.5861,-0 0.69776,-0.01 0.35428,-0 1.03046,-0.015 0,0 1.10683,0.1735 1.10683,0.1735 l 0,0 c -0.6776,0.011 -0.33372,0.01 -1.03165,0.015 -0.54316,0 -1.08632,0 -1.62947,0 -0.51546,-0 -1.00337,-0.023 -1.42913,-0.3481 -1.02796,-0.966 -1.35698,-2.4229 -1.79912,-3.7111 -0.31129,-1.0475 -0.56764,-2.1324 -0.94703,-3.1582 -0.0783,-0.2116 -0.40582,-0.4322 -0.27712,-0.6176 0.0611,-0.088 1.35409,-0.3681 0.72585,-0.2299 -0.41101,0.976 -0.35745,2.0347 -0.37204,3.0747 -0.0549,1.1896 -0.20554,2.3755 -0.69318,3.4757 -0.26308,0.4848 -0.39719,0.8122 -0.79009,1.2132 -0.87124,0.8891 -2.16947,0.8903 -3.33318,0.6868 -0.841542,-0.3374 -1.61428,-0.8362 -1.457652,-1.8928 0.03954,-0.2667 0.157611,-0.5158 0.236416,-0.7737 0.983726,-2.0578 2.120526,-4.1454 4.038206,-5.4764 0,0 1.11545,0.1211 1.11545,0.1211 z"
       inkscape:connector-curvature="0" />
    <path
       style="fill:#0000ff"
       id="path3437"
       d="m 117.50013,1026.3302 c -0.40397,-0.033 -0.80737,-0.096 -1.21292,-0.1093 -0.15123,-0.01 -0.55058,-0.1128 -0.45391,0 0.40641,0.4895 1.18493,-0.243 0.0478,0.532 -0.18216,0.1895 -0.38751,0.3593 -0.54648,0.5686 -0.50194,0.6612 -1.02252,1.7622 -1.14542,2.5861 -0.1303,0.8736 0.0275,1.2407 0.20459,2.0963 0.13287,0.341 0.24264,0.692 0.3986,1.0232 0.38424,0.8158 1.1442,1.9999 1.96346,2.4613 0.17568,0.099 0.37721,0.1426 0.56582,0.2138 0.22759,0.01 0.45834,0.069 0.68276,0.029 0.0939,-0.016 -0.35199,-0.058 -0.2673,-0.1017 0.26928,-0.1392 0.59488,-0.1231 0.88321,-0.2167 0.5684,-0.1844 1.21869,-0.4799 1.69388,-0.8506 0.24804,-0.1935 0.44846,-0.4414 0.67269,-0.662 0.66133,-0.7954 1.18564,-1.7328 1.07481,-2.8053 -0.0621,-0.6012 -0.21851,-0.804 -0.47734,-1.3503 -0.68176,-1.3493 -1.58964,-2.5425 -2.67383,-3.5903 -0.12169,-0.081 -0.50885,-0.2166 -0.36507,-0.2423 1.17219,-0.2097 0.90631,-0.028 1.17032,0.5855 0.12425,0.2886 0.26794,0.5685 0.4078,0.8498 1.26801,2.5509 -0.14324,-0.3757 1.15577,2.3433 0.93092,1.9506 1.49476,4.0205 1.81318,6.1496 0.11221,0.951 0.37171,1.9656 0.15329,2.9241 -0.0484,0.2123 -0.135,0.4142 -0.20251,0.6213 -0.55224,1.1739 -1.36546,2.2378 -2.52593,2.8636 -0.24105,0.13 -0.49963,0.2244 -0.74945,0.3367 -1.45712,0.5315 -3.00468,0.6436 -4.54009,0.7095 -0.17919,0 -0.35838,0.01 -0.53757,0.013 0,0 -1.10507,-0.1725 -1.10507,-0.1725 l 0,0 c 0.18058,-0 0.36115,-0.01 0.54172,-0.011 1.5341,-0.058 3.08055,-0.1583 4.54314,-0.6672 0.24866,-0.1069 0.50559,-0.1963 0.74596,-0.3207 1.15291,-0.5967 1.96908,-1.6314 2.51428,-2.7873 0.0658,-0.1997 0.15009,-0.3943 0.19733,-0.5992 0.21865,-0.9484 -0.0414,-1.9522 -0.14251,-2.8949 -0.29988,-2.1191 -0.85805,-4.1785 -1.78414,-6.1172 -0.19677,-0.4076 -0.38735,-0.8182 -0.59031,-1.2227 -0.12978,-0.2587 -0.8597,-1.6179 -1.01282,-1.9844 -0.0763,-0.1827 -0.33452,-0.4573 -0.17097,-0.5689 0.84299,-0.5756 1.09293,-0.2648 1.59111,0.1031 1.07553,1.0708 1.99759,2.2639 2.67273,3.63 0.26568,0.5725 0.42071,0.7731 0.48207,1.4011 0.1075,1.1003 -0.41481,2.0672 -1.09054,2.8891 -0.22497,0.2291 -0.42504,0.4856 -0.67492,0.6873 -1.44189,1.1635 -3.42198,1.3509 -5.19283,1.1601 -0.18992,-0.082 -0.39322,-0.1385 -0.56977,-0.2464 -0.31321,-0.1915 -0.73042,-0.6497 -0.94557,-0.921 -0.62654,-0.7901 -1.09661,-1.677 -1.39657,-2.6406 -0.17929,-0.8717 -0.3406,-1.2588 -0.2115,-2.1501 0.11444,-0.7901 0.67132,-1.9931 1.14038,-2.6378 0.1573,-0.2162 0.36147,-0.394 0.54221,-0.591 0.18042,-0.1342 0.32463,-0.3423 0.54125,-0.4024 1.09603,-0.3041 2.20308,-0.2034 3.30554,-0.083 0,0 -1.12031,0.1648 -1.12031,0.1648 z"
       inkscape:connector-curvature="0" />
    <path
       style="fill:#0000ff"
       id="path3439"
       d="m 125.82731,1032.4345 c 1.28383,-0.9303 2.57328,-1.9105 3.64054,-3.0925 0.20033,-0.2219 0.37689,-0.4641 0.56534,-0.6961 0.6732,-0.9135 1.01211,-2.0793 0.51901,-3.1473 -0.0775,-0.069 -0.14393,-0.1521 -0.23241,-0.2058 -0.57836,-0.3506 -1.77428,-0.309 -2.43652,-0.3259 0.17803,0.015 0.52477,-0.1325 0.5341,0.046 0.01,0.1831 -0.35966,0.088 -0.52274,0.1714 -0.17974,0.092 -0.35701,0.203 -0.49412,0.3515 -0.59538,0.6449 -0.77852,1.5551 -0.9799,2.372 -0.33286,1.9576 -0.33274,3.8572 0.0789,5.7983 0.42237,1.2945 0.69991,1.7977 1.92661,2.3495 1.24007,0.5208 2.58367,0.6929 3.90472,0.8834 0.88399,0.124 1.77361,0.199 2.66552,0.2286 0.57771,0.01 0.40421,0.01 -0.52032,-0.016 0,0 1.11765,0.1676 1.11765,0.1676 l 0,0 c -1.51145,0.03 -0.94026,0.039 -1.71368,0.021 -0.88691,-0.036 -1.77121,-0.1167 -2.64999,-0.2432 -1.32678,-0.1963 -2.67476,-0.3768 -3.91564,-0.9146 -0.1612,-0.077 -0.32831,-0.1427 -0.48359,-0.231 -0.8195,-0.4662 -1.17547,-1.3649 -1.4358,-2.2226 -0.39857,-1.949 -0.39772,-3.8833 -0.0736,-5.8473 0.20194,-0.8372 0.3884,-1.7698 0.96918,-2.4493 0.67466,-0.7893 1.78347,-0.6352 2.69608,-0.6368 0.70619,0.022 1.86213,-0.034 2.45822,0.4076 0.0915,0.068 0.15601,0.166 0.23402,0.2491 0.34433,0.8255 0.2888,1.7889 -0.11345,2.5969 -0.11879,0.2386 -0.28908,0.4479 -0.43363,0.6719 -0.19033,0.2355 -0.36842,0.4816 -0.57099,0.7067 -1.06435,1.183 -2.35328,2.1582 -3.61201,3.1199 0,0 -1.12148,-0.1129 -1.12148,-0.1129 z"
       inkscape:connector-curvature="0" />
    <path
       style="fill:#0000ff"
       id="path3441"
       d="m 81.828571,1035.9255 c 0.0418,0.4553 0.07338,0.9115 0.105486,1.3676 0,0 -1.12104,0.01 -1.12104,0.01 l 0,0 c -0.03238,-0.4552 -0.06381,-0.9107 -0.115447,-1.3643 0,0 1.131001,-0.011 1.131001,-0.011 z"
       inkscape:connector-curvature="0" />
    <path
       style="fill:#0000ff"
       id="path3443"
       d="m 97.525375,1037.379 c 0.363843,0.279 0.742927,0.6151 1.206189,0.7143 0.07157,0.015 0.292433,0.014 0.219275,0.012 -0.319566,-0.01 -0.639023,-0.024 -0.958534,-0.036 0,0 1.126226,0.1489 1.126226,0.1489 l 0,0 c -1.529608,0.061 -1.594767,0.183 -2.722761,-0.7503 0,0 1.129605,-0.089 1.129605,-0.089 z"
       inkscape:connector-curvature="0" />
    <path
       style="fill:#0000ff"
       id="path3449"
       d="m 81.801259,1036.3888 c -0.0094,0.9542 -0.0058,1.9085 -0.0038,2.8627 3.16e-4,0.3931 0.0011,0.7862 0.0013,1.1793 0,0 -1.126128,0 -1.126128,0 l 0,0 c 1.62e-4,-0.3931 9.55e-4,-0.7862 0.0013,-1.1793 0.002,-0.9542 0.0056,-1.9085 -0.0038,-2.8627 0,0 1.131122,0 1.131122,0 z"
       inkscape:connector-curvature="0" />
    <path
       style="fill:#ececec"
       id="path3395-0"
       d="m 15.095952,999.58573 c -0.959258,0 -1.918519,-6e-4 -2.877778,-7e-4 -1.709847,-0.095 -2.4122903,0.60117 -3.5789423,1.75317 -1.186961,1.3259 -2.2072,2.824 -2.834463,4.4987 -0.105904,0.2827 -0.184997,0.5748 -0.277496,0.8622 -0.502621,1.9063 -0.363895,2.8816 0.838995,4.4457 0.938077,1.0265 1.666106,1.0184 2.987409,1.0907 -0.09579,0 -0.382159,0 -0.287367,-0.01 1.1740583,-0.1751 0.642796,0.049 1.8509483,-0.2713 0.907925,-0.2406 1.535975,-0.608 2.287316,-1.1436 1.061598,-1.0029 1.199143,-2.3184 1.421137,-3.6868 0.190545,-1.6526 0.478163,-3.2914 0.812148,-4.9203 0.04532,-0.2502 0.193867,-1.0549 0.238726,-1.353 0.01727,-0.1148 -0.07551,-0.3523 0.04034,-0.3458 0.355533,0.02 0.778623,0.1165 0.989038,0.4038 0.142369,0.1944 -0.127408,0.4649 -0.180669,0.6999 -0.06508,0.2871 -0.116142,0.5772 -0.174213,0.8658 -0.285841,1.5781 -0.423946,3.1773 -0.495839,4.7779 -0.0305,1.385 0.552308,2.678 1.054562,3.9404 0.248228,0.5508 0.469507,1.1369 0.845194,1.6194 0.249471,0.3204 0.58744,0.5484 0.915987,0.777 0.628255,0.3816 1.330023,0.5708 2.052215,0.6631 -0.292109,-0.01 -0.587233,0.012 -0.876326,-0.031 -0.06639,-0.01 0.130016,-0.038 0.188239,-0.072 0.240081,-0.1378 0.396892,-0.4611 0.549765,-0.6789 0.03602,-0.063 0.07203,-0.1251 0.108049,-0.1877 0,0 1.132095,0.058 1.132095,0.058 l 0,0 c -0.03677,0.066 -0.07354,0.1323 -0.110316,0.1985 -0.685127,0.9792 -0.564504,0.9187 -2.110188,0.8738 -0.725806,-0.1095 -1.428642,-0.3182 -2.052851,-0.7173 -0.97143,-0.6992 -1.306441,-1.3404 -1.747931,-2.4618 -0.506071,-1.2785 -1.101726,-2.5848 -1.06299,-3.9876 0.08226,-1.6058 0.229409,-3.209 0.508548,-4.7939 0.0556,-0.2903 0.10608,-0.5817 0.166797,-0.8711 0.05007,-0.2386 -0.03013,-0.5669 0.165489,-0.7124 1.428184,-1.06207 1.313025,-0.5975 1.210493,8e-4 -0.02988,0.1744 -0.236182,1.2657 -0.253119,1.3557 -0.335825,1.6267 -0.611508,3.2656 -0.806763,4.9155 -0.218512,1.3972 -0.359893,2.7354 -1.424455,3.7741 -0.543469,0.3953 -0.754865,0.5903 -1.393839,0.8706 -1.471369,0.6454 -3.0809223,0.6621 -4.6571253,0.6159 -1.355599,-0.086 -2.064709,-0.1174 -3.000159,-1.186 -0.652978,-0.8837 -1.136903,-1.7583 -1.129939,-2.8992 0.0028,-0.458 0.203538,-1.2244 0.300373,-1.6525 0.09355,-0.2907 0.173324,-0.5863 0.280646,-0.8722 0.632442,-1.6851 1.656603,-3.1949 2.838342,-4.5405 0.725995,-0.7369 1.506625,-1.59987 2.5742873,-1.81227 0.199402,-0.04 0.777385,-0.03 0.988591,-0.031 0.956613,0 1.913227,0.001 2.869839,-6e-4 0,0 1.117196,0.177 1.117196,0.177 z"
       inkscape:connector-curvature="0" />
    <path
       style="fill:#ececec"
       id="path3397-9"
       d="m 24.759442,1001.803 c -0.04045,1.8133 0.0284,3.626 0.07794,5.4384 0.0593,2.1168 0.06053,4.2354 0.261251,6.3449 0.02531,0.1964 0.0847,0.7633 0.15513,1.0069 0.01042,0.036 0.100464,0.093 0.06293,0.093 -0.365721,2e-4 -0.756982,0.051 -1.093228,-0.093 -0.110445,-0.047 0.03015,-0.2385 0.0386,-0.3583 0.01365,-0.1936 0.01846,-0.3876 0.02769,-0.5814 0.04453,-1.5778 0.04188,-3.1565 0.03787,-4.7347 0.07624,-1.6457 0.627832,-3.2133 1.309532,-4.6969 0.53262,-0.9557 1.278845,-1.6874 2.352481,-1.9508 0.484704,0.01 0.974688,-0.047 1.454113,0.025 0.207443,0.031 0.66712,0.5873 0.737314,0.6824 0.495034,0.671 0.75168,1.436 1.022769,2.2137 0.392866,1.2821 0.58285,2.6115 0.868386,3.9186 0.159319,1.0059 0.485437,1.9554 0.901756,2.8794 0.227309,0.4501 0.501029,1.0381 1.060975,1.1376 0.119119,0.021 0.241737,0.011 0.362606,0.016 -1.12703,-0.057 -0.860431,0.013 -0.389032,-0.1021 0.286959,-0.07 0.297959,-0.094 0.545481,-0.2227 0,0 1.124482,0.1198 1.124482,0.1198 l 0,0 c -0.746651,0.4435 -1.510503,0.3972 -2.395214,0.3713 -0.123562,-0.017 -0.250567,-0.016 -0.370686,-0.05 -0.557505,-0.1548 -0.828866,-0.7554 -1.062275,-1.2232 -0.412052,-0.9325 -0.73159,-1.8918 -0.893917,-2.9026 -0.283122,-1.3022 -0.465017,-2.6279 -0.85517,-3.9053 -0.270136,-0.7648 -0.525396,-1.52 -1.033759,-2.1675 -0.11677,-0.1487 -0.247542,-0.2886 -0.394381,-0.4077 -0.102239,-0.083 -0.461267,-0.1303 -0.345058,-0.1921 0.229306,-0.1221 0.518922,-0.026 0.778383,-0.039 -1.074094,0.2012 -1.824276,0.9147 -2.36427,1.8462 -0.685873,1.4665 -1.229308,3.0169 -1.303885,4.6489 -0.0054,1.5797 -0.0052,3.1595 -0.0322,4.739 -0.006,0.1956 -0.0091,0.3913 -0.01796,0.5868 -0.006,0.1329 0.09653,0.3477 -0.02655,0.3982 -1.467962,0.6022 -1.243281,-0.1132 -1.369167,-1.0469 -0.189279,-2.1125 -0.173369,-4.2333 -0.23604,-6.3519 -0.05583,-1.8137 -0.136395,-3.6267 -0.129318,-5.4416 0,0 1.132427,0 1.132427,0 z"
       inkscape:connector-curvature="0" />
    <path
       style="fill:#ececec"
       id="path3405-4"
       d="m 55.799075,1000.7372 c -0.751873,-0.3716 -1.533171,-0.77677 -2.360334,-0.95777 -0.218674,-0.048 -0.447593,-0.1364 -0.665897,-0.087 -0.131458,0.03 0.249555,0.102 0.374333,0.153 -0.241023,0.17147 -0.513454,0.30587 -0.723069,0.51457 -1.052384,1.0482 -1.860369,3.2683 -1.66147,4.7391 0.06164,0.4559 0.266252,0.8806 0.399378,1.3209 0.520729,0.8731 0.737012,1.3759 1.473644,2.0806 0.795075,0.7605 1.850377,1.2895 2.889326,1.6233 0.285375,0.092 0.58191,0.1441 0.872865,0.2162 -0.122789,-0.069 -0.405765,-0.072 -0.368365,-0.2075 0.0674,-0.2448 0.417301,-0.3042 0.565891,-0.5101 0.18736,-0.2597 0.310768,-0.5625 0.424068,-0.862 0.396846,-1.0491 0.500161,-2.182 0.625315,-3.2855 0.21072,-1.4111 0.146059,-2.8542 0.394998,-4.2587 0.113819,-0.6163 0.116523,-0.7856 1.25259,-0.2047 0.125644,0.064 0.0077,0.2822 0.0094,0.4233 0.0044,0.3567 0.0039,1.0783 0.0043,1.4099 -0.0014,1.3919 0.108129,2.7776 0.601924,4.0919 0.336237,0.8949 0.628006,1.3598 1.083574,2.1938 0.463683,0.7557 0.956086,1.5065 1.581202,2.1414 0.111874,0.1136 0.22135,0.2356 0.35886,0.3164 0.09475,0.056 0.429077,0.086 0.319294,0.082 -0.260017,-0.01 -0.516152,-0.067 -0.774229,-0.1002 0.830124,-0.5246 1.428707,-1.314 1.845217,-2.1909 0,0 1.124641,0.05 1.124641,0.05 l 0,0 c -0.424767,0.904 -1.040902,1.6937 -1.85217,2.2867 -0.487611,0.032 -0.974274,0.1048 -1.462835,0.096 -0.256086,0 -0.528432,-0.3107 -0.667398,-0.4591 -0.610075,-0.6516 -1.099512,-1.4048 -1.557262,-2.1671 -0.447728,-0.8271 -0.756106,-1.3294 -1.088148,-2.2158 -0.496094,-1.3242 -0.608611,-2.7216 -0.6199,-4.1234 -0.0043,-0.4383 -0.0063,-0.9626 -0.02135,-1.4063 -0.0046,-0.1365 -0.143674,-0.348 -0.02158,-0.4091 0.333964,-0.1672 0.73972,-0.1079 1.11208,-0.137 0.02303,0 -0.02936,0.036 -0.04403,0.053 -0.02054,0.097 -0.04108,0.1934 -0.06163,0.2902 -0.265389,1.3996 -0.209974,2.8428 -0.426849,4.2507 -0.127264,1.1162 -0.235056,2.2559 -0.61953,3.3219 -0.126485,0.3507 -0.505636,1.3104 -0.987549,1.466 -0.58186,0.1879 -1.21486,0.1398 -1.82229,0.2097 -0.289594,-0.077 -0.584942,-0.1347 -0.868781,-0.2307 -2.128275,-0.7197 -3.316023,-1.8191 -4.352481,-3.803 -0.133404,-0.4516 -0.338405,-0.888 -0.400211,-1.3549 -0.198549,-1.4997 0.606427,-3.7392 1.642995,-4.8386 0.209089,-0.2218 0.480636,-0.37497 0.720953,-0.56247 0.608322,-0.054 1.21443,-0.1474 1.824965,-0.1612 0.900425,-0.02 2.237286,0.70017 3.045467,1.08567 0,0 -1.11993,0.1172 -1.11993,0.1172 z"
       inkscape:connector-curvature="0" />
    <path
       style="fill:#ececec"
       id="path3407-0"
       d="m 64.238367,1000.4361 c 1.806112,2.1058 3.224073,4.5138 4.723215,6.8412 0.850544,1.278 1.603892,2.6187 1.944814,4.1238 -0.532219,-0.3086 0.251626,0.479 0.09803,0.4557 -0.381753,-0.058 -0.798214,-0.076 -1.122628,-0.2858 -0.0311,-0.02 0.188414,-1.5707 0.200453,-1.6523 0.144421,-1.2693 0.406622,-2.5197 0.783574,-3.7394 0.275495,-0.9519 0.509524,-1.0922 1.779533,-0.7133 0.1447,0.043 0.168758,0.2506 0.24822,0.379 0.104228,0.1684 0.201807,0.3409 0.30271,0.5113 0.83252,1.452 1.509849,2.9822 2.20772,4.5011 0.09535,0.1986 0.273104,0.6457 0.465537,0.8353 0.03704,0.036 0.197861,0.058 0.145915,0.055 -0.345385,-0.017 -0.711298,0.03 -1.032726,-0.098 -0.09072,-0.036 0.05233,-0.1884 0.06798,-0.2848 0.02121,-0.1305 0.02825,-0.263 0.04238,-0.3945 -0.01748,-1.0679 -0.10293,-2.1336 -0.14653,-3.2009 0.0224,-0.7026 -0.115611,-1.4223 -0.02152,-2.1234 0.0663,-0.494 0.162169,-0.6424 0.3513,-1.1162 0.271881,-0.6125 0.7069,-1.1079 1.147064,-1.6013 0,0 1.110909,0.082 1.110909,0.082 l 0,0 c -0.43937,0.4794 -0.872341,0.9612 -1.144277,1.562 -0.181476,0.4499 -0.280662,0.6082 -0.344603,1.0784 -0.09487,0.6977 0.04016,1.4148 0.01734,2.114 0.04387,1.0728 0.133265,2.1435 0.155247,3.2168 -0.02103,0.2214 -0.06127,0.7328 -0.101248,0.7476 -1.291516,0.4779 -1.397482,0.1079 -1.819361,-0.8249 -0.689455,-1.5195 -1.366083,-3.0485 -2.215419,-4.4879 -0.103303,-0.1675 -0.199291,-0.3397 -0.309909,-0.5025 -0.07665,-0.1128 -0.361676,-0.2431 -0.251108,-0.323 0.242263,-0.1748 0.587301,-0.1344 0.886094,-0.1354 0.07103,-2e-4 -0.12335,0.077 -0.166428,0.1331 -0.134465,0.1763 -0.188424,0.4213 -0.252149,0.6245 -0.388334,1.2109 -0.661228,2.4547 -0.795637,3.7208 -0.05729,0.4186 -0.116405,0.8079 -0.154471,1.2265 -0.01254,0.1378 0.09115,0.3416 -0.02662,0.4144 -1.217744,0.7522 -1.111517,0.511 -1.227267,-0.1495 -0.329338,-1.4891 -1.070426,-2.8176 -1.90037,-4.087 -0.90158,-1.4123 -0.596935,-0.9408 -1.550197,-2.4092 -0.987926,-1.5218 -1.936942,-3.0919 -3.213292,-4.3962 0,0 1.117725,-0.097 1.117725,-0.097 z"
       inkscape:connector-curvature="0" />
    <path
       style="fill:#ececec"
       id="path3409-0"
       d="m 81.062894,1009.2484 c -0.20299,-0.016 -0.73301,0.1137 -0.60897,-0.048 0.15291,-0.199 0.49691,-0.073 0.74234,-0.1258 0.26707,-0.057 0.53646,-0.1114 0.79388,-0.2026 0.97408,-0.3452 1.66884,-0.8988 2.44333,-1.5563 0.99978,-0.9386 1.66774,-2.1145 2.01595,-3.4376 0.0729,-0.2768 0.13975,-0.5578 0.16307,-0.8431 0.0198,-0.2418 -0.0231,-0.4846 -0.0347,-0.7269 -0.10596,-0.2095 -0.18061,-0.438 -0.31789,-0.6284 -0.38517,-0.5342 -1.06119,-0.9821 -1.68025,-1.1903 -0.20706,-0.07 -0.43379,-0.067 -0.64102,-0.1365 -0.13108,-0.044 0.2735,0.04 0.41025,0.06 -0.22858,0.097 -0.47341,0.1613 -0.68572,0.2898 -1.43913,0.8707 -2.02969,2.6774 -2.53221,4.1759 -0.31637,1.2708 -0.66109,2.6184 -0.36954,3.9304 0.054,0.2432 0.14559,0.4764 0.21839,0.7147 0.34154,0.8655 0.85286,1.8216 1.78464,2.1695 0.17602,0.066 0.36377,0.094 0.54565,0.1414 0.68123,0.1322 1.37526,0.1764 2.06787,0.1887 0.13775,0 0.5511,0 0.41332,0 -0.24475,5e-4 -0.48951,0 -0.73426,0 0.89385,0.024 1.6573,0.01 2.50433,-0.3036 0.4447,-0.2181 0.23676,-0.098 0.62648,-0.3559 0,0 1.12239,0.1093 1.12239,0.1093 l 0,0 c -0.39302,0.2771 -0.18317,0.1483 -0.63222,0.382 -0.87143,0.3453 -1.58078,0.3712 -2.50859,0.3439 -1.32373,0 -2.66265,0.053 -3.96691,-0.2205 -0.18441,-0.056 -0.37566,-0.092 -0.55323,-0.1665 -0.93134,-0.3909 -1.4328,-1.3735 -1.77714,-2.2564 -0.0734,-0.2441 -0.16602,-0.4832 -0.22015,-0.7323 -0.28934,-1.3312 0.0577,-2.693 0.38191,-3.9811 0.5157,-1.5248 1.1055,-3.3346 2.52828,-4.2671 0.21255,-0.1393 0.45864,-0.2191 0.68796,-0.3286 0.59708,-0.014 1.19469,-0.072 1.79124,-0.043 0.80883,0.039 1.88504,0.7717 2.32702,1.4254 0.13916,0.2059 0.21218,0.4494 0.31828,0.674 0.009,0.251 0.0503,0.5027 0.0285,0.7529 -0.0252,0.29 -0.0939,0.5753 -0.16835,0.8567 -0.35425,1.3383 -1.01544,2.5389 -2.02148,3.4971 -0.25594,0.2222 -0.49731,0.4624 -0.76783,0.6665 -1.50903,1.139 -2.95784,1.3557 -4.81314,1.3489 0,0 1.11849,-0.1772 1.11849,-0.1772 z"
       inkscape:connector-curvature="0" />
    <path
       style="fill:#ececec"
       id="path3411-7"
       d="m 97.782184,1001.0521 c -0.99126,-0.4323 -2.08272,-0.5608 -3.14788,-0.6845 -0.15402,0 -0.60347,-0.073 -0.46205,-0.012 0.19327,0.084 0.50613,-0.09 0.62624,0.082 0.0927,0.1334 -0.31703,0.081 -0.46278,0.1529 -0.45377,0.2233 -0.69673,0.5693 -0.92566,0.9974 -0.0262,0.1359 -0.0785,0.2693 -0.0785,0.4077 -4.3e-4,0.8808 1.0434,1.5418 1.67743,1.9713 1.09275,0.6661 2.36284,0.9053 3.54246,1.362 1.42316,0.4877 2.631606,1.4144 3.804886,2.3294 0.48955,0.4585 1.64817,1.1687 1.10377,1.99 -0.0773,0.1166 -0.19227,0.2033 -0.2884,0.3049 -1.00947,0.7536 -2.26375,0.974 -3.464636,1.2431 -1.32679,0.2649 -2.67452,0.4027 -4.02382,0.483 -1.2364,0.047 -2.41419,0.2204 -3.46307,-0.4927 0,0 1.12407,-0.112 1.12407,-0.112 l 0,0 c 0.29874,0.1861 0.5708,0.3156 0.92195,0.3812 0.14058,0.026 0.55955,0 0.42561,0.054 -0.0361,0.014 -1.42819,0.031 -0.11565,3e-4 1.35138,-0.073 2.70143,-0.2042 4.03103,-0.4635 1.18703,-0.2648 2.424356,-0.4719 3.443036,-1.1822 0.18095,-0.1685 0.3701,-0.2813 0.41927,-0.5439 0.11369,-0.6073 -0.8707,-1.2147 -1.21163,-1.5623 -1.17445,-0.9134 -2.391276,-1.8138 -3.815986,-2.295 -1.18712,-0.4454 -2.45507,-0.7062 -3.54225,-1.3886 -0.69503,-0.483 -1.69423,-1.1327 -1.69148,-2.1002 4.2e-4,-0.1492 0.0541,-0.2935 0.0811,-0.4403 0.0713,-0.1421 0.12403,-0.2952 0.21386,-0.4264 0.72887,-1.0646 2.08024,-0.9776 3.23839,-0.9031 1.07354,0.1323 2.1716,0.272 3.16626,0.7212 0,0 -1.12556,0.1251 -1.12556,0.1251 z"
       inkscape:connector-curvature="0" />
    <path
       style="fill:#ececec"
       id="path3413-8"
       d="m 106.59891,1001.5924 c -0.38435,1.1573 -0.46745,2.3789 -0.54061,3.5872 -0.0378,1.6969 -0.15388,3.4023 -0.0242,5.0971 0.0528,0.2153 0.0731,0.4413 0.15827,0.6461 0.53183,1.2789 2.09745,1.7302 3.29894,2.0756 0.0896,-0.345 1.19153,0.5647 1.35157,0.1409 0.0691,-0.1828 -0.5216,10e-4 -0.55411,-0.1917 -0.0348,-0.206 0.32112,-0.2724 0.44775,-0.4386 0.32675,-0.4287 0.41465,-0.7935 0.59624,-1.2932 0.39962,-1.5213 0.44538,-3.1106 0.40473,-4.675 -0.14838,-1.3195 -0.45732,-2.5981 -1.37632,-3.6038 -0.18759,-0.2052 -0.4071,-0.3789 -0.61065,-0.5683 -0.89664,-0.713 -1.92737,-1.1837 -3.05067,-1.3845 -0.28574,-0.044 -0.57447,-0.05 -0.86279,-0.055 0,0 1.11823,-0.1741 1.11823,-0.1741 l 0,0 c 0.28798,0.01 0.57628,0.022 0.8606,0.074 1.12115,0.2294 2.14709,0.721 3.03509,1.4499 0.20394,0.1953 0.42393,0.3751 0.61184,0.5859 0.92039,1.0326 1.23238,2.3319 1.38253,3.6733 0.0363,1.578 -0.008,3.1799 -0.40456,4.7158 -0.14758,0.4187 -0.55379,1.6613 -1.04404,1.828 -0.99494,0.3384 -2.01002,0.2766 -3.00003,0.058 -1.24064,-0.3741 -2.78557,-0.864 -3.3161,-2.1908 -0.0844,-0.2112 -0.10433,-0.4428 -0.1565,-0.6641 -0.12226,-1.7 0.002,-3.4095 0.0299,-5.1115 0.0638,-1.218 0.14823,-2.4456 0.51367,-3.6174 0,0 1.13121,0.036 1.13121,0.036 z"
       inkscape:connector-curvature="0" />
    <path
       style="fill:#ececec"
       id="path3415-6"
       d="m 116.66143,1003.2297 c -0.39874,2.2575 -0.17718,4.5444 0.004,6.8104 0.0823,0.8817 0.12471,1.7667 0.20424,2.6486 0.0118,0.1308 0.024,0.2618 0.0446,0.3916 0.005,0.033 0.0661,0.097 0.0326,0.095 -0.37641,-0.02 -0.74686,-0.1031 -1.1203,-0.1546 0.0559,-1.1064 -0.019,-2.2179 0.15789,-3.3167 0.0441,-0.2736 0.11245,-0.5428 0.16868,-0.8142 0.1253,-0.4135 0.32454,-1.1577 0.54366,-1.5418 0.55682,-0.9759 1.53572,-1.416 2.53078,-1.8047 1.05843,-0.3319 2.13911,-0.5493 3.22114,-0.014 0.24236,0.12 0.75252,1.593 0.76996,1.6378 0.37067,1.2448 0.75617,2.4945 1.00056,3.7723 0.0482,0.2519 0.0757,0.5077 0.0989,0.7632 0.009,0.098 0.0958,0.2971 -0.003,0.2958 -0.42894,-0.01 -0.8324,-0.2078 -1.2486,-0.3117 -0.36204,-1.5737 0.13262,-2.4685 1.19412,-3.5927 0.63978,-0.5848 1.38856,-1.0214 2.25975,-1.0981 0.49231,0.036 0.99271,0.012 1.47692,0.1085 0.163,0.032 0.28718,0.1685 0.42061,0.2675 0.74373,0.5521 1.20225,1.344 1.65833,2.1301 0.65739,1.2133 1.11596,2.5175 1.3919,3.8668 0.097,0.5088 0.13679,1.0247 0.1615,1.5411 0,0 -1.12919,0.01 -1.12919,0.01 l 0,0 c -0.0215,-0.5104 -0.0573,-1.0206 -0.15089,-1.5238 -0.26939,-1.3384 -0.71873,-2.6321 -1.37987,-3.8306 -0.36207,-0.6139 -0.71782,-1.228 -1.23677,-1.7277 -0.1324,-0.1275 -0.27798,-0.2419 -0.42981,-0.3455 -0.13328,-0.091 -0.53877,-0.1241 -0.42256,-0.236 0.18264,-0.176 0.50398,-0.057 0.75596,-0.085 -0.86755,0.02 -1.62168,0.4533 -2.26717,1.0128 -1.03177,1.0529 -1.5672,1.9637 -1.17603,3.4681 -0.33623,0.1152 -0.65412,0.321 -1.00868,0.3456 -0.0926,0.01 0.0301,-0.1846 0.0255,-0.2773 -0.0126,-0.2516 -0.0329,-0.5038 -0.077,-0.7518 -0.22652,-1.2762 -0.62562,-2.5197 -1.00762,-3.7549 -0.13405,-0.3249 -0.24385,-0.6609 -0.40213,-0.9748 -0.10645,-0.211 -0.46338,-0.3689 -0.38868,-0.5932 0.0755,-0.2267 0.53416,-0.057 0.67068,-0.2535 0.0947,-0.1361 -0.33257,-0.014 -0.49738,0 -0.3431,0.038 -0.85956,0.1963 -1.18004,0.2848 -0.9738,0.3612 -1.97093,0.7683 -2.52635,1.7141 -0.21873,0.3724 -0.4208,1.1188 -0.54428,1.5215 -0.0561,0.2681 -0.12496,0.5337 -0.16832,0.8041 -0.17606,1.0977 -0.1016,2.2102 -0.12648,3.3161 -0.38492,0.057 -0.76613,0.1513 -1.15474,0.1704 -0.0157,8e-4 -0.0352,-0.3105 -0.0485,-0.5069 -0.0598,-0.8827 -0.11142,-1.766 -0.18435,-2.6479 -0.17213,-2.2755 -0.38751,-4.5653 -0.0324,-6.8364 0,0 1.11894,0.018 1.11894,0.018 z"
       inkscape:connector-curvature="0" />
    <path
       style="fill:#ececec"
       id="path3417-1"
       d="m 135.98465,1010.4362 c 0.13236,-2.1356 0.17112,-4.2756 0.20694,-6.4147 -0.0407,-0.5572 0.0557,-1.9303 -0.31233,-2.4241 -0.1686,-0.2261 -0.44091,-0.256 -0.68642,-0.3301 -0.16483,-0.025 -0.56232,0.077 -0.49448,-0.076 0.0705,-0.1584 0.62666,-0.1179 0.51989,0.019 -0.12794,0.1637 -0.41498,0.046 -0.61481,0.1028 -0.21096,0.06 -0.41975,0.1375 -0.61026,0.2462 -0.61727,0.3524 -0.62221,0.5083 -1.03624,1.0999 -0.11415,0.2612 -0.26474,0.5092 -0.34243,0.7835 -0.41579,1.4674 -0.0702,3.0687 0.47524,4.4494 0.15605,0.395 0.35946,0.7697 0.53919,1.1545 0.80357,1.428 1.86754,2.7154 3.35457,3.4476 0.32581,0.141 0.67149,0.1998 1.02306,0.2251 0.0997,0.01 0.39955,0.014 0.29963,0.012 -0.27916,-0.01 -0.56045,0.013 -0.83733,-0.023 -0.11578,-0.015 0.23194,-0.027 0.34791,-0.04 0.75015,-0.1022 1.36876,-0.4863 1.95646,-0.9364 0.78937,-0.6392 1.51808,-1.3481 2.24317,-2.058 0.50239,-0.514 1.048,-1.0004 1.46845,-1.5869 0,0 1.12996,0.069 1.12996,0.069 l 0,0 c -0.41441,0.6008 -0.97621,1.0856 -1.48199,1.6067 -0.7274,0.711 -1.45529,1.4234 -2.24081,2.071 -0.58852,0.464 -1.20244,0.8727 -1.95952,0.9971 -1.01898,0.1317 -2.09929,0.1847 -3.0643,-0.2129 -1.47026,-0.7798 -2.52467,-2.081 -3.3214,-3.5235 -0.17995,-0.3892 -0.38326,-0.7684 -0.53985,-1.1675 -0.55208,-1.4072 -0.9021,-3.0315 -0.4945,-4.5284 0.0766,-0.2812 0.22819,-0.5363 0.34228,-0.8045 0.1567,-0.2372 0.28135,-0.499 0.47011,-0.7115 0.96475,-1.0866 2.70831,-0.9834 3.98245,-0.7529 0.30498,0.1199 0.51005,0.139 0.69747,0.4278 0.36176,0.5576 0.23717,1.8545 0.27879,2.4671 -0.0482,2.1377 -0.0967,4.2755 -0.16778,6.4125 0,0 -1.13112,0 -1.13112,0 z"
       inkscape:connector-curvature="0" />
    <path
       style="fill:#ececec"
       id="path3419-2"
       d="m 18.663002,1032.1901 c 0.203109,0.3852 0.482821,1.1543 1.015361,1.1504 -1.071615,-0.034 -1.224935,0.2511 -0.963134,-0.1332 0,0 1.135615,0.054 1.135615,0.054 l 0,0 c -0.23055,0.5482 -0.01014,0.1671 -1.29914,0.238 -0.53328,-0.1829 -0.790663,-0.8032 -1.020994,-1.2688 0,0 1.132292,-0.041 1.132292,-0.041 z"
       inkscape:connector-curvature="0" />
    <path
       style="fill:#ececec"
       id="path3421-7"
       d="m 30.682052,1023.3185 c -1.281712,-0.2211 -2.58392,-0.2864 -3.881274,-0.3444 0.154417,0.011 0.577771,-0.072 0.463252,0.033 -0.154856,0.1408 -0.417117,0.052 -0.618534,0.1085 -0.213069,0.06 -0.427325,0.1304 -0.618804,0.2416 -0.73613,0.4276 -1.12251,1.135 -1.534303,1.8434 -0.243038,0.5517 -0.630741,1.2164 -0.264859,1.8232 0.553983,0.9187 1.906277,1.5496 2.790198,2.0609 1.317706,0.8252 2.91785,1.1401 4.193254,2.0397 0.173247,0.1222 0.326507,0.2705 0.489761,0.4058 0.736324,0.9613 1.453726,2.1191 1.50759,3.3627 -0.06094,0.1049 -0.09576,0.2302 -0.182808,0.3148 -0.549759,0.5339 -2.140662,0.5133 -2.856168,0.5418 -1.358482,-0.05 -2.885651,0.2489 -4.180306,-0.2299 -0.158177,-0.058 -0.304844,-0.1443 -0.457265,-0.2165 -0.416889,-0.2771 -0.794306,-0.6049 -1.169543,-0.9344 0,0 1.117882,-0.096 1.117882,-0.096 l 0,0 c 0.370948,0.3224 0.741565,0.6475 1.164666,0.902 0.442076,0.193 0.476989,0.2379 0.964424,0.326 0.184036,0.033 0.429513,-0.072 0.557274,0.065 0.107511,0.1149 -0.627568,0.01 -0.471357,0.027 0.07766,0.01 1.318614,-0.012 1.377142,-0.013 0.699922,-0.024 2.246314,0 2.826915,-0.4374 0.08137,-0.062 0.122035,-0.1637 0.183052,-0.2455 -0.03536,-1.2125 -0.75284,-2.3526 -1.491257,-3.268 -0.162524,-0.1299 -0.316164,-0.2717 -0.487573,-0.3895 -1.276822,-0.8778 -2.850741,-1.2191 -4.159135,-2.0423 -0.917046,-0.5358 -2.277965,-1.1741 -2.830661,-2.1464 -0.365662,-0.6434 0.01412,-1.3253 0.275744,-1.908 0.412753,-0.7211 0.802973,-1.4598 1.53282,-1.9169 0.870005,-0.5448 2.033561,-0.3962 2.977329,-0.4204 1.30478,0.062 2.61427,0.1318 3.902759,0.3585 0,0 -1.120215,0.1548 -1.120215,0.1548 z"
       inkscape:connector-curvature="0" />
    <path
       style="fill:#ececec"
       id="path3423-9"
       d="m 38.366232,1023.4345 c 1.264445,3.1331 2.543567,6.2589 3.684503,9.4402 0.371108,0.9471 0.657422,1.9424 1.147784,2.84 0.08208,0.1503 0.147669,0.3229 0.281615,0.4296 0.08868,0.071 0.434581,0.1142 0.334523,0.061 -0.204635,-0.1089 -0.43709,-0.1545 -0.655635,-0.2318 1.922342,-1.894 3.374097,-4.2138 4.701027,-6.5481 0.516867,-0.9534 0.966566,-1.9392 1.411041,-2.9274 0,0 1.122498,0.048 1.122498,0.048 l 0,0 c -0.456733,0.9911 -0.916008,1.9811 -1.446607,2.936 -1.350179,2.3373 -2.818754,4.6407 -4.675159,6.6126 -0.525171,0.085 -1.044474,0.2229 -1.575513,0.2543 -0.33932,0.02 -0.492736,-0.3674 -0.605408,-0.5858 -0.468102,-0.9077 -0.747184,-1.9009 -1.106156,-2.852 -1.122239,-3.1984 -2.394004,-6.3363 -3.743252,-9.4451 0,0 1.124739,-0.031 1.124739,-0.031 z"
       inkscape:connector-curvature="0" />
    <path
       style="fill:#ececec"
       id="path3425-0"
       d="m 59.997838,1025.215 c -0.615019,-0.3876 -1.542929,-0.9796 -2.264896,-1.1015 -0.162973,-0.027 -0.330441,-0.01 -0.495661,-0.013 0.15933,0.045 0.554993,-0.01 0.477989,0.1362 -0.117376,0.2236 -0.473818,0.1772 -0.700694,0.2881 -0.252515,0.1234 -0.496204,0.265 -0.734781,0.4136 -0.836556,0.5211 -1.306179,0.9676 -1.945466,1.7021 -0.631841,0.9215 -1.210397,2.3655 -1.098403,3.5057 0.02817,0.2868 0.123727,0.5629 0.185591,0.8443 0.687387,1.788 1.707781,3.5356 3.214244,4.763 0.323621,0.2636 0.689064,0.4714 1.033596,0.7071 0.872353,0.4973 1.779445,0.9762 2.765009,1.2092 0.250371,0.059 0.512628,0.058 0.762639,0.1187 0.147211,0.036 -0.487948,0.1039 -0.452388,-0.043 0.04204,-0.1741 0.337533,-0.1199 0.5063,-0.1798 0.846425,-0.7076 0.979918,-1.8071 1.129982,-2.8364 0.10273,-0.7925 0.138597,-1.5911 0.151231,-2.3895 -0.01121,-0.3919 -0.190218,-0.5387 -0.567162,-0.5984 -0.384754,-0.061 -0.741046,-0.071 -1.131919,-0.094 -1.020405,-0.041 -2.041292,-0.022 -3.061263,-0.07 0,0 1.100848,-0.1693 1.100848,-0.1693 l 0,0 c 1.020083,0.044 2.041084,0.028 3.061314,0.072 0.707067,0.048 1.688797,-0.075 1.728227,0.8615 -0.01685,0.8032 -0.05954,1.6062 -0.16305,2.4034 -0.151973,1.0688 -0.305798,2.183 -1.138218,2.9546 -0.171897,0.071 -0.330718,0.1935 -0.51569,0.2135 -2.107033,0.2276 -3.480123,-0.2883 -5.255014,-1.3479 -0.34537,-0.2417 -0.711619,-0.456 -1.036111,-0.725 -1.511268,-1.2531 -2.538661,-3.0186 -3.234581,-4.8257 -0.06434,-0.291 -0.163491,-0.5765 -0.193019,-0.8731 -0.08851,-0.8892 0.279303,-2.1334 0.688461,-2.9142 0.121511,-0.2318 0.278305,-0.4434 0.417457,-0.6652 0.641378,-0.7497 1.109273,-1.2013 1.949585,-1.7392 0.238697,-0.1528 1.115232,-0.6748 1.42982,-0.7349 0.569722,-0.1088 1.155348,-0.1042 1.733021,-0.1563 0.166995,0.014 0.336903,0.01 0.500985,0.043 0.785658,0.1636 1.606235,0.7205 2.276641,1.1384 0,0 -1.124624,0.1026 -1.124624,0.1026 z"
       inkscape:connector-curvature="0" />
    <path
       style="fill:#ececec"
       id="path3429-6"
       d="m 75.265515,1026.1616 c 0.353934,0.4016 0.171338,0.1862 0.544893,0.6485 0,0 -1.119273,0.077 -1.119273,0.077 l 0,0 c -0.37865,-0.4555 -0.192427,-0.2443 -0.555225,-0.6366 0,0 1.129605,-0.089 1.129605,-0.089 z"
       inkscape:connector-curvature="0" />
    <path
       style="fill:#ececec"
       id="path3431-5"
       d="m 75.358826,1028.7991 c 0.11349,0.9474 0.250384,1.8913 0.335716,2.8424 0.06046,0.7624 0.0845,1.5269 0.09469,2.2914 -0.0082,0.543 -0.0032,1.0797 0.06542,1.6185 0.03967,0.5161 0.134367,1.0162 0.252855,1.5184 0.06588,0.2802 0.09283,0.5665 0.115231,0.8527 0,0 -1.133823,0.01 -1.133823,0.01 l 0,0 c -0.02249,-0.2804 -0.04972,-0.561 -0.115009,-0.8355 -0.118723,-0.5058 -0.205433,-1.0114 -0.249383,-1.5301 -0.0704,-0.543 -0.07584,-1.0844 -0.06559,-1.6318 -0.0065,-0.7615 -0.02464,-1.5232 -0.08502,-2.2826 -0.08397,-0.9511 -0.21836,-1.8945 -0.347375,-2.8399 0,0 1.132285,-0.013 1.132285,-0.013 z"
       inkscape:connector-curvature="0" />
    <path
       style="fill:#ececec"
       id="path3433-0"
       d="m 80.190874,1027.6774 c 0.23545,2.4729 0.46267,4.946 0.7608,7.4129 0.0358,0.2586 0.067,0.5178 0.10733,0.7757 0.10479,0.6708 0.45588,1.0472 -1.02157,0.3942 -0.1063,-0.047 -0.0144,-0.2323 -0.0107,-0.3485 0.006,-0.1805 0.0261,-0.3603 0.0392,-0.5404 0.16494,-1.1716 0.45766,-2.3442 0.95789,-3.4217 0.33178,-0.7147 0.60758,-1.0841 1.03616,-1.7376 0.46752,-0.6419 0.97954,-1.2554 1.58261,-1.7752 0.19152,-0.1651 0.52853,-0.4711 0.82841,-0.465 0.51628,0.01 1.02621,0.1163 1.53931,0.1745 0.15401,0.2165 0.33451,0.4163 0.46202,0.6494 0.25346,0.4633 0.70881,1.7079 0.86614,2.1587 0.43901,1.2578 0.76851,2.5339 1.08249,3.8271 0.22371,0.8747 0.32197,1.7746 0.52395,2.6536 0.0499,0.2172 0.1128,0.7142 0.36145,0.8387 -0.35328,-0.056 -0.7428,0 -1.05985,-0.1681 -0.10644,-0.056 0.043,-0.2364 0.0571,-0.3557 0.018,-0.1526 0.0292,-0.306 0.0393,-0.4594 0.037,-0.5633 0.0424,-1.1282 0.0513,-1.6924 0.0145,-1.4536 0.42543,-2.8512 0.93618,-4.1992 0.38762,-0.8672 0.68487,-1.4403 1.65748,-1.6263 0.45259,0 0.90591,-0.016 1.35776,0.01 0.1811,0.01 0.48426,0.2206 0.60142,0.294 0.65985,0.4133 1.09156,0.8315 1.61579,1.406 0.79063,0.898 1.2879,1.9328 1.51463,3.0985 0.0839,0.3986 0.0538,0.8105 0.12052,1.2109 0.042,0.2522 0.16487,0.6308 0.23577,0.8674 0,0 -1.12042,0.033 -1.12042,0.033 l 0,0 c -0.21352,-0.706 -0.31167,-1.3547 -0.35873,-2.0895 -0.22301,-1.1447 -0.7142,-2.1592 -1.49486,-3.0376 -0.50696,-0.541 -0.98605,-0.9962 -1.63106,-1.3692 -0.11653,-0.067 -0.23399,-0.1349 -0.35883,-0.1852 -0.0776,-0.031 -0.32722,-0.048 -0.24419,-0.058 0.2918,-0.036 0.58785,-0.014 0.88178,-0.021 -0.98613,0.1219 -1.26503,0.6401 -1.66808,1.5075 -0.51849,1.3322 -0.91487,2.7195 -0.92927,4.1602 -0.01,0.7213 -0.008,1.4479 -0.0801,2.1664 -0.0128,0.1271 0.0648,0.3241 -0.0501,0.3798 -0.36866,0.1785 -0.80484,0.1527 -1.20726,0.229 -0.21565,-0.2439 -0.27244,-0.6129 -0.33783,-0.9188 -0.18787,-0.8789 -0.28027,-1.776 -0.49839,-2.6492 -0.30773,-1.291 -0.63512,-2.5618 -1.08123,-3.8137 -0.16138,-0.4528 -0.61548,-1.6663 -0.88776,-2.1261 -0.12794,-0.2161 -0.31434,-0.3916 -0.47151,-0.5874 0.22996,-0.054 0.46033,-0.107 0.68989,-0.1629 0.13418,-0.033 -0.27988,0.032 -0.40373,0.093 -0.16009,0.079 -0.29309,0.2045 -0.43052,0.3185 -0.61044,0.506 -1.12662,1.1118 -1.59668,1.7474 -0.42432,0.639 -0.70734,1.0143 -1.03466,1.7144 -0.49784,1.0648 -0.78699,2.227 -0.93564,3.3882 -0.0101,0.1761 -0.0281,0.3519 -0.0304,0.5283 -0.001,0.1177 0.12518,0.3014 0.0192,0.3525 -1.22065,0.5882 -1.12696,0.344 -1.22114,-0.3792 -0.0337,-0.2588 -0.0615,-0.5182 -0.0923,-0.7773 -0.26998,-2.4673 -0.4849,-4.942 -0.79971,-7.4032 0,0 1.13064,-0.022 1.13064,-0.022 z"
       inkscape:connector-curvature="0" />
    <path
       style="fill:#ececec"
       id="path3435-3"
       d="m 103.97423,1028.3808 c -1.95454,1.2693 -3.09113,3.3506 -4.058786,5.4039 -0.0752,0.2525 -0.18945,0.4966 -0.2257,0.7576 -0.13657,0.9832 0.684706,1.4451 1.464836,1.7253 0.16744,0.015 0.59724,0.185 0.50231,0.046 -0.10069,-0.1472 -0.56959,0.089 -0.5284,-0.084 0.0492,-0.2072 0.41295,-0.1175 0.60033,-0.2188 0.65423,-0.3534 0.98092,-0.9412 1.32755,-1.5638 0.49039,-1.0817 0.62776,-2.2528 0.6814,-3.4251 0.003,-1.054 -0.009,-2.1137 0.36774,-3.1122 1.49034,-1.1163 1.84966,1.0322 2.06331,1.7715 1.07363,3.7153 -0.49973,-1.6451 0.64614,2.2456 0.44772,1.2646 0.77133,2.7387 1.83622,3.6478 0.29882,0.201 0.63485,0.2579 0.98767,0.2662 0.14261,0 0.57058,0 0.42794,0 -0.19536,0 -0.39073,0 -0.5861,0 0.69776,-0.01 0.35428,0 1.03046,-0.015 0,0 1.10683,0.1735 1.10683,0.1735 l 0,0 c -0.6776,0.011 -0.33372,0.01 -1.03165,0.015 -0.54316,0 -1.08632,0 -1.62947,0 -0.51546,0 -1.00337,-0.023 -1.42913,-0.3481 -1.02796,-0.966 -1.35698,-2.4229 -1.79912,-3.7111 -0.31129,-1.0475 -0.56764,-2.1324 -0.94703,-3.1582 -0.0783,-0.2116 -0.40582,-0.4322 -0.27712,-0.6176 0.0611,-0.088 1.35409,-0.3681 0.72585,-0.2299 -0.41101,0.976 -0.35745,2.0347 -0.37204,3.0747 -0.0549,1.1896 -0.20554,2.3755 -0.69318,3.4757 -0.26309,0.4848 -0.3972,0.8122 -0.7901,1.2132 -0.87124,0.8891 -2.16947,0.8903 -3.33318,0.6868 -0.841536,-0.3374 -1.614276,-0.8362 -1.457646,-1.8928 0.0395,-0.2667 0.15761,-0.5158 0.23642,-0.7737 0.98372,-2.0578 2.120516,-4.1454 4.038196,-5.4764 0,0 1.11545,0.1211 1.11545,0.1211 z"
       inkscape:connector-curvature="0" />
    <path
       style="fill:#ececec"
       id="path3437-0"
       d="m 116.75057,1025.6391 c -0.40397,-0.033 -0.80737,-0.096 -1.21292,-0.1093 -0.15123,-0.01 -0.55058,-0.1128 -0.45391,0 0.40641,0.4895 1.18493,-0.243 0.0478,0.532 -0.18216,0.1895 -0.38751,0.3593 -0.54648,0.5686 -0.50194,0.6612 -1.02252,1.7622 -1.14542,2.5861 -0.1303,0.8736 0.0275,1.2407 0.20459,2.0963 0.13287,0.341 0.24264,0.692 0.3986,1.0232 0.38424,0.8158 1.1442,1.9999 1.96346,2.4613 0.17568,0.099 0.37721,0.1426 0.56582,0.2138 0.22759,0.01 0.45834,0.069 0.68276,0.029 0.0939,-0.016 -0.35199,-0.058 -0.2673,-0.1017 0.26928,-0.1392 0.59488,-0.1231 0.88321,-0.2167 0.5684,-0.1844 1.21869,-0.4799 1.69388,-0.8506 0.24804,-0.1935 0.44846,-0.4414 0.67269,-0.662 0.66133,-0.7954 1.18564,-1.7328 1.07481,-2.8053 -0.0621,-0.6012 -0.21851,-0.804 -0.47734,-1.3503 -0.68176,-1.3493 -1.58964,-2.5425 -2.67383,-3.5903 -0.12169,-0.081 -0.50885,-0.2166 -0.36507,-0.2423 1.17219,-0.2097 0.90631,-0.028 1.17032,0.5855 0.12425,0.2886 0.26794,0.5685 0.4078,0.8498 1.26801,2.5509 -0.14324,-0.3757 1.15577,2.3433 0.93092,1.9506 1.49476,4.0205 1.81318,6.1496 0.11221,0.951 0.37171,1.9656 0.15329,2.9241 -0.0484,0.2123 -0.135,0.4142 -0.20251,0.6213 -0.55224,1.1739 -1.36546,2.2378 -2.52593,2.8636 -0.24105,0.13 -0.49963,0.2244 -0.74945,0.3367 -1.45712,0.5315 -3.00468,0.6436 -4.54009,0.7095 -0.17919,0 -0.35838,0.01 -0.53757,0.013 0,0 -1.10507,-0.1725 -1.10507,-0.1725 l 0,0 c 0.18058,0 0.36115,-0.01 0.54172,-0.011 1.5341,-0.058 3.08055,-0.1583 4.54314,-0.6672 0.24866,-0.1069 0.50559,-0.1963 0.74596,-0.3207 1.15291,-0.5967 1.96908,-1.6314 2.51428,-2.7873 0.0658,-0.1997 0.15009,-0.3943 0.19733,-0.5992 0.21865,-0.9484 -0.0414,-1.9522 -0.14251,-2.8949 -0.29988,-2.1191 -0.85805,-4.1785 -1.78414,-6.1172 -0.19677,-0.4076 -0.38735,-0.8182 -0.59031,-1.2227 -0.12978,-0.2587 -0.8597,-1.6179 -1.01282,-1.9844 -0.0763,-0.1827 -0.33452,-0.4573 -0.17097,-0.5689 0.84299,-0.5756 1.09293,-0.2648 1.59111,0.1031 1.07553,1.0708 1.99759,2.2639 2.67273,3.63 0.26568,0.5725 0.42071,0.7731 0.48207,1.4011 0.1075,1.1003 -0.41481,2.0672 -1.09054,2.8891 -0.22497,0.2291 -0.42504,0.4856 -0.67492,0.6873 -1.44189,1.1635 -3.42198,1.3509 -5.19283,1.1601 -0.18992,-0.082 -0.39322,-0.1385 -0.56977,-0.2464 -0.31321,-0.1915 -0.73042,-0.6497 -0.94557,-0.921 -0.62654,-0.7901 -1.09661,-1.677 -1.39657,-2.6406 -0.17929,-0.8717 -0.3406,-1.2588 -0.2115,-2.1501 0.11444,-0.7901 0.67132,-1.9931 1.14038,-2.6378 0.1573,-0.2162 0.36147,-0.394 0.54221,-0.591 0.18042,-0.1342 0.32463,-0.3423 0.54125,-0.4024 1.09603,-0.3041 2.20308,-0.2034 3.30554,-0.083 0,0 -1.12031,0.1648 -1.12031,0.1648 z"
       inkscape:connector-curvature="0" />
    <path
       style="fill:#ececec"
       id="path3439-5"
       d="m 125.07775,1031.7434 c 1.28383,-0.9303 2.57328,-1.9105 3.64054,-3.0925 0.20033,-0.2219 0.37689,-0.4641 0.56534,-0.6961 0.6732,-0.9135 1.01211,-2.0793 0.51901,-3.1473 -0.0775,-0.069 -0.14393,-0.1521 -0.23241,-0.2058 -0.57836,-0.3506 -1.77428,-0.309 -2.43652,-0.3259 0.17803,0.015 0.52477,-0.1325 0.5341,0.046 0.01,0.1831 -0.35966,0.088 -0.52274,0.1714 -0.17974,0.092 -0.35701,0.203 -0.49412,0.3515 -0.59538,0.6449 -0.77852,1.5551 -0.9799,2.372 -0.33286,1.9576 -0.33274,3.8572 0.0789,5.7983 0.42237,1.2945 0.69991,1.7977 1.92661,2.3495 1.24007,0.5208 2.58367,0.6929 3.90472,0.8834 0.88399,0.124 1.77361,0.199 2.66552,0.2286 0.57771,0.01 0.40421,0.01 -0.52032,-0.016 0,0 1.11765,0.1676 1.11765,0.1676 l 0,0 c -1.51145,0.03 -0.94026,0.039 -1.71368,0.021 -0.88691,-0.036 -1.77121,-0.1167 -2.64999,-0.2432 -1.32678,-0.1963 -2.67476,-0.3768 -3.91564,-0.9146 -0.1612,-0.077 -0.32831,-0.1427 -0.48359,-0.231 -0.8195,-0.4662 -1.17547,-1.3649 -1.4358,-2.2226 -0.39857,-1.949 -0.39772,-3.8833 -0.0736,-5.8473 0.20194,-0.8372 0.3884,-1.7698 0.96918,-2.4493 0.67466,-0.7893 1.78347,-0.6352 2.69608,-0.6368 0.70619,0.022 1.86213,-0.034 2.45822,0.4076 0.0915,0.068 0.15601,0.166 0.23402,0.2491 0.34433,0.8255 0.2888,1.7889 -0.11345,2.5969 -0.11879,0.2386 -0.28908,0.4479 -0.43363,0.6719 -0.19033,0.2355 -0.36842,0.4816 -0.57099,0.7067 -1.06435,1.183 -2.35328,2.1582 -3.61201,3.1199 0,0 -1.12148,-0.1129 -1.12148,-0.1129 z"
       inkscape:connector-curvature="0" />
    <path
       style="fill:#ececec"
       id="path3441-0"
       d="m 81.079004,1035.2344 c 0.0418,0.4553 0.0734,0.9115 0.10549,1.3676 0,0 -1.12104,0.01 -1.12104,0.01 l 0,0 c -0.0324,-0.4552 -0.0638,-0.9107 -0.11545,-1.3643 0,0 1.131,-0.011 1.131,-0.011 z"
       inkscape:connector-curvature="0" />
    <path
       style="fill:#ececec"
       id="path3443-8"
       d="m 96.775814,1036.6879 c 0.36384,0.279 0.74292,0.6151 1.20619,0.7143 0.0716,0.015 0.29243,0.014 0.21927,0.012 -0.31956,-0.01 -0.63902,-0.024 -0.95853,-0.036 0,0 1.12622,0.1489 1.12622,0.1489 l 0,0 c -1.5296,0.061 -1.59476,0.183 -2.72276,-0.7503 0,0 1.12961,-0.089 1.12961,-0.089 z"
       inkscape:connector-curvature="0" />
    <path
       style="fill:#ececec"
       id="path3449-2"
       d="m 81.051694,1035.6977 c -0.009,0.9542 -0.006,1.9085 -0.004,2.8627 3.2e-4,0.3931 10e-4,0.7862 10e-4,1.1793 0,0 -1.12613,0 -1.12613,0 l 0,0 c 1.7e-4,-0.3931 9.6e-4,-0.7862 0.001,-1.1793 0.002,-0.9542 0.006,-1.9085 -0.004,-2.8627 0,0 1.13113,0 1.13113,0 z"
       inkscape:connector-curvature="0" />
  </g>
</svg>
