<?xml version="1.0" encoding="UTF-8" standalone="no"?>
<!-- Created with Inkscape (http://www.inkscape.org/) -->

<svg
   xmlns:dc="http://purl.org/dc/elements/1.1/"
   xmlns:cc="http://creativecommons.org/ns#"
   xmlns:rdf="http://www.w3.org/1999/02/22-rdf-syntax-ns#"
   xmlns:svg="http://www.w3.org/2000/svg"
   xmlns="http://www.w3.org/2000/svg"
   xmlns:sodipodi="http://sodipodi.sourceforge.net/DTD/sodipodi-0.dtd"
   xmlns:inkscape="http://www.inkscape.org/namespaces/inkscape"
   width="210mm"
   height="297mm"
   viewBox="0 0 744.09448819 1052.3622047"
   id="svg2"
   version="1.1"
   inkscape:version="0.91 r13725"
   sodipodi:docname="drawing.svg">
  <defs
     id="defs4">
    <filter
       x="-0.3"
       width="1.6"
       y="-0.3"
       height="1.6"
       style="color-interpolation-filters:sRGB;"
       inkscape:label="Felt Feather"
       id="filter4522">
      <feGaussianBlur
         stdDeviation="7.43 1.80628"
         result="blur"
         id="feGaussianBlur4524" />
      <feComposite
         in="SourceGraphic"
         in2="blur"
         operator="atop"
         result="composite1"
         id="feComposite4526" />
      <feComposite
         in2="composite1"
         operator="in"
         result="composite2"
         id="feComposite4528" />
      <feComposite
         in2="composite2"
         operator="in"
         result="composite3"
         id="feComposite4530" />
      <feTurbulence
         type="fractalNoise"
         numOctaves="3"
         seed="1"
         baseFrequency="0.0001 0.0001"
         result="turbulence"
         id="feTurbulence4532" />
      <feDisplacementMap
         in="composite3"
         in2="turbulence"
         xChannelSelector="R"
         scale="47.4"
         yChannelSelector="G"
         result="map"
         id="feDisplacementMap4534" />
      <feColorMatrix
         values="1 0 0 0 0 0 1 0 0 0 0 0 1 0 0 0 0 0 40.89 -4.17 "
         result="colormatrix"
         id="feColorMatrix4536" />
      <feComposite
         in="composite3"
         in2="colormatrix"
         operator="over"
         result="composite4"
         id="feComposite4538" />
    </filter>
  </defs>
  <sodipodi:namedview
     id="base"
     pagecolor="#ffffff"
     bordercolor="#666666"
     borderopacity="1.0"
     inkscape:pageopacity="0.0"
     inkscape:pageshadow="2"
     inkscape:zoom="1.4"
     inkscape:cx="263.57756"
     inkscape:cy="583.56385"
     inkscape:document-units="px"
     inkscape:current-layer="layer1"
     showgrid="false"
     inkscape:window-width="1080"
     inkscape:window-height="1858"
     inkscape:window-x="1358"
     inkscape:window-y="-8"
     inkscape:window-maximized="1" />
  <metadata
     id="metadata7">
    <rdf:RDF>
      <cc:Work
         rdf:about="">
        <dc:format>image/svg+xml</dc:format>
        <dc:type
           rdf:resource="http://purl.org/dc/dcmitype/StillImage" />
        <dc:title></dc:title>
      </cc:Work>
    </rdf:RDF>
  </metadata>
  <g
     inkscape:label="Layer 1"
     inkscape:groupmode="layer"
     id="layer1">
    <path
       style="fill:#000000;fill-opacity:1;fill-rule:nonzero;stroke:none;stroke-width:1px;stroke-linecap:butt;stroke-linejoin:miter;stroke-opacity:1"
       id="path3374"
       d="m 217.29987,128.87696 c -0.65576,10.26266 -2.0469,20.96282 -0.12568,31.14207 1.53894,8.15378 3.73722,12.74316 6.56996,20.11769 13.90923,26.1784 34.79226,38.70837 55.77378,47.98082 5.91125,1.42125 15.93809,6.82084 22.03324,5.72574 1.68267,-0.30231 3.16336,-1.79602 4.74504,-2.69404 -7.47049,5.89324 -14.94098,11.78648 -22.41146,17.6797 0,0 28.91055,-16.85348 28.91055,-16.85348 l 0,0 c -10.39958,9.02218 -20.51692,18.79036 -31.19874,27.06653 -6.1612,4.77364 -20.98758,-3.91766 -27.19739,-5.73026 -21.45005,-10.35371 -42.78734,-23.88628 -57.23468,-50.58463 -3.03871,-7.66543 -5.4891,-12.82459 -7.32604,-21.29932 -2.26809,-10.46372 -1.02508,-21.21954 -0.79767,-31.92258 0,0 28.25909,-20.62824 28.25909,-20.62824 z"
       inkscape:connector-curvature="0" />
    <path
       style="fill:#000000;fill-opacity:1;fill-rule:nonzero;stroke:none;stroke-width:1px;stroke-linecap:butt;stroke-linejoin:miter;stroke-opacity:1"
       id="path3376"
       d="m 405.60628,306.13832 c 11.61105,1.43594 23.27488,1.94743 34.92781,2.47263 0,0 -35.12367,32.25383 -35.12367,32.25383 l 0,0 c -11.88718,-0.62085 -23.77697,-1.19824 -35.65293,-2.11793 0,0 35.84879,-32.60853 35.84879,-32.60853 z"
       inkscape:connector-curvature="0" />
    <path
       style="fill:#000000;fill-opacity:1;fill-rule:nonzero;stroke:none;stroke-width:1px;stroke-linecap:butt;stroke-linejoin:miter;stroke-opacity:1"
       id="path3378"
       d="m 315.47044,442.20907 c 30.48238,0.98305 60.97195,1.20149 91.45939,1.33652 3.07127,0.006 42.98967,0.11236 46.32802,0.006 7.38021,-0.23567 14.85997,0.71527 22.12844,-1.39849 8.92003,-2.59407 17.49736,-7.79779 26.06741,-12.61747 2.2716,-1.2775 -8.68464,4.92161 -7.1046,1.95308 9.31702,-17.50461 20.81864,-31.51696 31.22795,-47.27545 9.4228,-17.80862 18.8456,-35.6172 28.2684,-53.42581 0,0 38.17058,-26.51331 38.17058,-26.51331 l 0,0 c -9.32564,17.99831 -18.65127,35.99664 -27.97692,53.99494 -39.79583,63.17153 -35.35861,63.11989 -97.18125,114.96032 -16.31225,13.67839 -32.11622,12.70716 -49.47375,13.11437 -15.4443,0.36234 -30.89338,-0.48213 -46.33764,0.006 -31.23442,0.13734 -62.47061,0.37277 -93.70025,1.33652 0,0 38.12422,-45.4767 38.12422,-45.4767 z"
       inkscape:connector-curvature="0" />
    <path
       style="fill:#000000;fill-opacity:1;fill-rule:nonzero;stroke:none;stroke-width:1px;stroke-linecap:butt;stroke-linejoin:miter;stroke-opacity:1"
       id="path3380"
       d="m 391.54108,77.161437 c 6.20835,18.858659 11.87901,37.994703 20.14546,56.096103 1.90204,4.16497 4.10424,8.18622 6.15637,12.27934 11.6879,19.06506 24.53948,31.30292 45.06877,39.88544 8.48312,3.29615 17.41975,3.62967 26.38342,3.52837 4.22713,0.34671 8.15968,-0.57004 12.24105,-1.42369 0,0 -33.86585,25.57015 -33.86585,25.57015 l 0,0 c -4.19022,0.68687 -8.389,0.84618 -12.63703,0.71419 -9.2882,-0.2165 -18.41328,-1.32972 -26.97108,-5.25633 -20.61993,-9.94355 -33.85517,-23.07888 -45.73901,-42.79346 -2.08464,-4.17911 -4.30035,-8.29536 -6.25393,-12.53732 -8.27565,-17.96953 -13.97665,-36.95234 -21.33555,-55.285314 0,0 36.80738,-20.777479 36.80738,-20.777479 z"
       inkscape:connector-curvature="0" />
    <path
       style="font-style:normal;font-weight:normal;font-size:40px;line-height:125%;font-family:sans-serif;letter-spacing:0px;word-spacing:0px;fill:#000000;fill-opacity:1;stroke:none;stroke-width:1px;stroke-linecap:butt;stroke-linejoin:miter;stroke-opacity:1;filter:url(#filter4522)"
       d="M 729.61328 553.79883 L 729.61328 554.50195 C 730.18457 554.60449 730.54297 554.75781 730.68945 554.96289 C 730.85059 555.16797 730.97461 555.65918 731.0625 556.43555 L 732.66797 569.94727 C 732.71191 570.29883 732.73242 570.62988 732.73242 570.9375 C 732.73242 571.4502 732.65332 571.80859 732.49219 572.01367 C 732.33105 572.2041 731.9502 572.37988 731.34961 572.54102 L 731.34961 573.24414 L 737.10547 573.24414 L 737.10547 572.54102 C 736.50488 572.37988 736.12402 572.2041 735.96289 572.01367 C 735.80176 571.82324 735.7207 571.46484 735.7207 570.9375 C 735.7207 570.62988 735.74316 570.29883 735.78711 569.94727 L 737.39062 556.43555 C 737.47852 555.65918 737.5957 555.16797 737.74219 554.96289 C 737.90332 554.75781 738.27051 554.60449 738.8418 554.50195 L 738.8418 553.79883 L 729.61328 553.79883 z M 722.8457 557.77539 C 722.69922 558.30273 722.50098 558.66797 722.25195 558.87305 C 722.01758 559.07812 721.66602 559.18164 721.19727 559.18164 L 720.88281 559.18164 C 719.49472 559.95525 717.23824 561.06555 713.67578 562.89648 C 713.52647 562.91684 713.37777 562.942 713.22852 562.96289 C 713.44161 563.20391 713.60074 563.36172 713.84375 563.64258 L 721.19727 563.64258 C 721.66602 563.64258 722.01758 563.74414 722.25195 563.94922 C 722.50098 564.1543 722.69922 564.52832 722.8457 565.07031 L 723.43945 565.07031 L 723.43945 557.77539 L 722.8457 557.77539 z M 629.25195 563.51367 C 626.54745 563.55183 623.84322 563.5806 621.13867 563.61133 L 620.19141 565.17578 C 621.50101 565.44683 622.81381 565.70934 624.11523 565.99609 C 626.0654 566.67997 628.01962 567.35652 629.9668 568.04883 L 629.9668 563.51562 C 629.72831 563.5161 629.49048 563.51303 629.25195 563.51367 z M 644.70117 563.60156 L 642.05078 568.9668 C 643.75072 569.08815 645.45378 569.26799 647.15039 569.51758 L 648.70898 566.30078 L 650.66602 570.14062 C 653.13727 570.64456 655.57525 571.28791 657.9375 572.09766 L 653.6582 563.99414 C 652.81222 563.90672 651.96852 563.80394 651.125 563.69336 C 648.98416 563.65292 646.84252 563.62835 644.70117 563.60156 z M 670.79883 564.32812 C 670.13183 564.36622 669.46443 564.38904 668.79688 564.41602 C 667.27607 566.54318 666.50781 568.94149 666.50781 571.61719 C 666.50781 572.34615 666.59005 573.05486 666.70898 573.75391 C 668.69101 573.66237 670.66853 573.47707 672.64258 573.24609 C 672.5546 572.73628 672.50586 572.20273 672.50586 571.64062 C 672.50586 569.16325 673.34 567.17734 674.99023 565.67383 C 673.7646 565.10357 671.89605 564.79727 670.79883 564.32812 z M 717.28906 567.64062 C 717.47253 567.85357 717.57095 567.96926 717.76953 568.19922 L 717.76953 567.64062 L 717.28906 567.64062 z M 667.10352 575.38672 C 667.18063 575.63099 667.24327 575.87884 667.33594 576.11914 C 667.7782 576.27182 668.22388 576.416 668.67383 576.54688 C 669.66937 576.83637 668.5597 576.15719 667.10352 575.38672 z M 521.25391 576.97852 C 520.98844 576.97252 522.26898 577.17091 522.00977 577.22852 C 520.24895 577.61988 516.2288 577.85941 512.89844 578.00781 L 513.77539 579.90234 C 514.21484 580.85449 514.43555 581.46973 514.43555 581.74805 C 514.43555 582.50977 513.97363 582.95605 513.05078 583.08789 L 513.05078 583.79102 L 523.37695 583.79102 L 523.37695 583.08789 C 522.4541 582.95605 521.99414 582.5166 521.99414 581.76953 C 521.99414 581.47656 522.21289 580.85449 522.65234 579.90234 L 523.90234 577.20312 C 523.02045 577.10569 522.14014 576.99868 521.25391 576.97852 z M 734.22656 577.11133 C 733.21582 577.12598 732.35938 577.48438 731.65625 578.1875 C 730.96777 578.87598 730.62305 579.71191 730.62305 580.69336 C 730.62305 581.68945 730.97461 582.5459 731.67773 583.26367 C 732.38086 583.9668 733.23047 584.31836 734.22656 584.31836 C 735.20801 584.31836 736.05078 583.9668 736.75391 583.26367 C 737.47168 582.56055 737.83008 581.71777 737.83008 580.73633 C 737.83008 579.72559 737.47852 578.86914 736.77539 578.16602 C 736.08691 577.46289 735.2373 577.11133 734.22656 577.11133 z M 723.50391 577.90234 C 723.35742 578.44434 723.16113 578.81836 722.91211 579.02344 C 722.7766 579.14201 722.59385 579.21589 722.38477 579.26562 C 723.25939 581.78577 723.55757 583.59178 723.3418 584.75391 C 723.39917 584.89324 723.45961 585.02501 723.50391 585.19727 L 724.11914 585.19727 L 724.11914 577.90234 L 723.50391 577.90234 z M 336.875 578.56055 C 336.47054 578.65017 336.08045 578.7215 335.74609 578.71875 C 335.65911 578.74661 335.53035 578.78514 335.44531 578.8125 L 335.44531 581.54883 C 335.44531 582.00293 335.33496 582.35449 335.11523 582.60352 C 334.91016 582.85254 334.55176 583.04395 334.03906 583.17578 L 334.03906 583.79102 L 342.74023 583.79102 L 342.74023 583.19727 C 342.21289 583.03613 341.84766 582.83789 341.64258 582.60352 C 341.4375 582.35449 341.33398 582.00293 341.33398 581.54883 L 341.33398 581.52344 C 338.82686 580.95834 337.11316 580.05544 336.875 578.56055 z M 541.16016 580.57812 C 541.27918 580.673 541.38292 580.77658 541.50586 580.86914 C 544.56738 583.16895 548.52246 584.31836 553.37109 584.31836 C 556.51129 584.31836 559.71342 583.74115 562.97461 582.61914 C 562.48035 582.61118 561.98658 582.59931 561.49219 582.60156 C 559.83449 582.60956 558.18786 583.06565 556.5332 582.96484 C 553.92795 582.80612 551.37139 582.18016 548.78516 581.82812 C 546.22344 581.47944 543.68813 581.04318 541.16016 580.57812 z M 6.4921875 580.84961 L 6.4921875 581.50586 C 6.4921875 581.94531 6.390625 582.28125 6.1855469 582.51562 C 5.9804688 582.75 5.6132812 582.94141 5.0859375 583.08789 L 5.0859375 583.79102 L 10.769531 583.79102 C 9.1854742 582.78271 7.7613389 581.80252 6.4921875 580.84961 z M 311.30469 581.17383 C 310.95291 581.16692 310.60285 581.17007 310.25195 581.18555 C 310.50869 581.60871 310.68164 581.97049 310.68164 582.20898 C 310.68164 582.66309 310.30078 582.99219 309.53906 583.19727 L 309.53906 583.79102 L 319.86719 583.79102 L 319.86719 583.19727 C 319.22266 583.08008 318.64355 582.80957 318.13086 582.38477 C 317.93169 582.20903 317.68312 581.92645 317.42773 581.62891 C 315.38708 581.56306 313.33958 581.21378 311.30469 581.17383 z M 361.99219 582.97852 C 361.8348 583.05158 361.66915 583.12224 361.46094 583.17578 L 361.46094 583.79102 L 366.21289 583.79102 C 365.17474 583.40133 363.71433 583.14903 361.99219 582.97852 z M 336.06055 621.9668 C 335.76758 623.02148 335.38672 623.76953 334.91797 624.20898 C 334.44922 624.61914 333.77539 624.82422 332.89648 624.82422 L 279.45898 624.82422 L 279.45898 626.23047 C 280.51367 626.52344 281.24609 626.9043 281.65625 627.37305 C 282.06641 627.8418 282.27148 628.5293 282.27148 629.4375 L 282.27148 680.19531 C 282.27148 681.10352 282.06641 681.79102 281.65625 682.25977 C 281.24609 682.72852 280.51367 683.10938 279.45898 683.40234 L 279.45898 684.80859 L 333.95117 684.80859 C 334.83008 684.80859 335.50391 685.01367 335.97266 685.42383 C 336.44141 685.83398 336.82227 686.56641 337.11523 687.62109 L 338.52148 687.62109 L 338.52148 672.10938 L 337.11523 672.10938 C 336.82227 673.16404 336.44141 673.89648 335.97266 674.30664 C 335.50391 674.7168 334.83008 674.92184 333.95117 674.92188 L 295.36719 674.92188 L 295.36719 658.48633 L 319.71289 658.48633 C 320.5918 658.48633 321.26562 658.70508 321.73438 659.14453 C 322.20312 659.55469 322.58398 660.27344 322.87695 661.29883 L 324.2832 661.29883 L 324.2832 646.13672 L 322.87695 646.13672 C 322.58398 647.19141 322.20306 647.92383 321.73438 648.33398 C 321.26562 648.74414 320.5918 648.94922 319.71289 648.94922 L 295.36719 648.94922 L 295.36719 634.71094 L 332.89648 634.71094 C 333.77539 634.71094 334.44922 634.91602 334.91797 635.32617 C 335.38672 635.73633 335.76758 636.45508 336.06055 637.48047 L 337.4668 637.48047 L 337.4668 621.9668 L 336.06055 621.9668 z M 633.48242 621.9668 C 633.18945 623.02148 632.80859 623.76953 632.33984 624.20898 C 631.87109 624.61914 631.19727 624.82422 630.31836 624.82422 L 576.88086 624.82422 L 576.88086 626.23047 C 577.93555 626.52344 578.66797 626.9043 579.07812 627.37305 C 579.48829 627.8418 579.69336 628.5293 579.69336 629.4375 L 579.69336 680.19531 C 579.69336 681.10352 579.48828 681.79102 579.07812 682.25977 C 578.66797 682.72852 577.93555 683.10938 576.88086 683.40234 L 576.88086 684.80859 L 631.37305 684.80859 C 632.25195 684.80859 632.92578 685.01367 633.39453 685.42383 C 633.86328 685.83398 634.24414 686.56641 634.53711 687.62109 L 635.94336 687.62109 L 635.94336 672.10938 L 634.53711 672.10938 C 634.24414 673.16404 633.86328 673.89648 633.39453 674.30664 C 632.92578 674.7168 632.25195 674.92184 631.37305 674.92188 L 592.78906 674.92188 L 592.78906 658.48633 L 617.13477 658.48633 C 618.01367 658.48633 618.6875 658.70508 619.15625 659.14453 C 619.625 659.55469 620.00586 660.27344 620.29883 661.29883 L 621.70508 661.29883 L 621.70508 646.13672 L 620.29883 646.13672 C 620.00586 647.19141 619.625 647.92383 619.15625 648.33398 C 618.6875 648.74414 618.01367 648.94922 617.13477 648.94922 L 592.78906 648.94922 L 592.78906 634.71094 L 630.31836 634.71094 C 631.19727 634.71094 631.87109 634.91602 632.33984 635.32617 C 632.80859 635.73633 633.18945 636.45508 633.48242 637.48047 L 634.88867 637.48047 L 634.88867 621.9668 L 633.48242 621.9668 z M 374.0293 623.76953 C 364.88867 623.76953 358.0332 625.95117 353.46289 630.31641 C 349.97656 633.62695 348.23437 637.81641 348.23438 642.88477 C 348.23438 645.96094 348.92188 648.68555 350.29883 651.05859 C 351.82227 653.69531 353.91797 655.67383 356.58398 656.99219 C 358.45898 657.92969 360.33398 658.61719 362.20898 659.05664 C 364.08398 659.4668 367.29102 659.90625 371.83203 660.375 L 378.59961 661.07812 C 383.14062 661.57619 386.1582 662.11914 387.65234 662.70508 C 389.79102 663.55469 390.86133 664.97461 390.86133 666.9668 C 390.86133 668.28516 390.40625 669.56055 389.49805 670.79102 C 388.58984 671.99219 387.375 672.95898 385.85156 673.69141 C 383.09766 675.00977 379.77148 675.66797 375.875 675.66797 C 372.30078 675.66797 368.52148 675.05273 364.53711 673.82227 C 360.55273 672.5918 357.60938 671.12695 355.70508 669.42773 C 354.44531 668.31445 353.81445 667.09961 353.81445 665.78125 L 353.81445 665.20898 L 352.54102 664.59375 L 346.03711 679.31641 L 347.31055 679.97461 C 348.13086 679.33008 348.73242 679.00781 349.11328 679.00781 C 349.43555 679.00781 350.41602 679.38867 352.05664 680.15039 C 359.79102 683.95898 367.62891 685.86328 375.56836 685.86328 C 379.99219 685.86328 384.13672 685.32227 388.00391 684.23828 C 393.18945 682.80273 397.01367 680.58984 399.47461 677.60156 C 402.19922 674.32031 403.56055 670.57031 403.56055 666.35156 C 403.56055 663.68555 402.97461 661.18164 401.80273 658.83789 C 400.66016 656.49414 399.09375 654.60352 397.10156 653.16797 C 395.13867 651.79102 392.88281 650.72266 390.33398 649.96094 C 387.81445 649.19922 384.50391 648.59766 380.40234 648.1582 L 373.50195 647.45508 C 368.87305 646.98633 365.85547 646.54688 364.44922 646.13672 C 361.72461 645.31641 360.36328 643.7793 360.36328 641.52344 C 360.36328 640.14648 360.89062 638.87109 361.94531 637.69922 C 363.0293 636.52734 364.43555 635.64844 366.16406 635.0625 C 368.53711 634.30078 371.27539 633.91992 374.38086 633.91992 C 381.41211 633.91992 387.53516 635.73633 392.75 639.36914 C 394.44922 640.51172 395.29883 641.58203 395.29883 642.57812 C 395.29883 642.75392 395.28516 642.98828 395.25586 643.28125 L 396.48633 643.98438 L 403.64844 629.87695 L 402.41797 629.21875 C 401.59766 629.89258 400.88088 630.22852 400.26562 630.22852 C 399.88477 630.22852 398.84375 629.89258 397.14453 629.21875 C 392.19336 627.13867 388.0625 625.7168 384.75195 624.95508 C 381.44141 624.16406 377.86719 623.76953 374.0293 623.76953 z M 445.66016 623.76953 C 431.71484 623.94531 421.79883 628.79297 415.91016 638.31445 C 412.83398 643.29492 411.29492 648.78906 411.29492 654.79492 C 411.29492 658.89648 412.04297 662.80664 413.53711 666.52734 C 415.23633 670.74609 417.72656 674.36523 421.00781 677.38281 C 427.13086 683.03711 435.37695 685.86328 445.74805 685.86328 C 459.57617 685.86328 469.52344 681 475.58789 671.27344 C 478.69336 666.29297 480.24609 660.93164 480.24609 655.18945 C 480.24609 645.81445 477.00781 638.16797 470.5332 632.25 C 464.41016 626.5957 456.11914 623.76953 445.66016 623.76953 z M 130.96875 624.82422 L 130.96875 626.23047 C 132.66797 626.81641 133.51758 627.7832 133.51758 629.13086 C 133.51758 630.00977 133.16602 631.18164 132.46289 632.64648 L 110.40234 678.74414 C 109.61133 680.44336 108.9082 681.58592 108.29297 682.17188 C 107.67773 682.75779 106.7832 683.16797 105.61133 683.40234 L 105.61133 684.80859 L 125.47461 684.80859 L 125.47461 683.40234 C 123.51172 682.9043 122.53125 682.01172 122.53125 680.72266 C 122.53125 680.04883 122.80859 679.125 123.36523 677.95312 L 127.4082 669.51562 L 154.6543 669.51562 L 158.78516 677.95312 C 159.37109 679.15431 159.66406 680.0625 159.66406 680.67773 C 159.66406 682.17188 158.69727 683.08008 156.76367 683.40234 L 156.76367 684.80859 L 178.82422 684.80859 L 178.82422 683.40234 C 177.59375 683.16797 176.61328 682.69922 175.88086 681.99609 C 175.14844 681.26367 174.29883 679.91602 173.33203 677.95312 L 150.48047 631.72266 C 149.92383 630.63867 149.64453 629.67188 149.64453 628.82227 C 149.64453 627.5918 150.50977 626.72852 152.23828 626.23047 L 152.23828 624.82422 L 130.96875 624.82422 z M 171.75 624.82422 L 171.75 626.23047 C 173.06836 626.49414 174.06445 627.02148 174.73828 627.8125 C 175.44141 628.57422 176.2168 630.05273 177.06641 632.25 L 194.25 676.50391 C 195.07031 678.67188 195.48047 679.97461 195.48047 680.41406 C 195.48047 682.02539 194.49805 683.02148 192.53516 683.40234 L 192.53516 684.80859 L 211.82812 684.80859 L 211.82812 683.40234 C 209.66016 682.8457 208.57617 681.89453 208.57617 680.54688 C 208.57617 680.07812 208.9707 678.96484 209.76172 677.20703 L 223.47266 642.57812 L 236.70117 676.50391 C 237.60938 678.58398 238.0625 679.90234 238.0625 680.45898 C 238.0625 682.09961 237.03711 683.08008 234.98633 683.40234 L 234.98633 684.80859 L 254.54297 684.80859 L 254.54297 683.40234 C 252.46289 683.05078 251.42188 682.1582 251.42188 680.72266 C 251.42188 680.01953 251.83203 678.61328 252.65234 676.50391 L 269.83594 632.25 C 270.74414 629.93555 271.47656 628.45703 272.0332 627.8125 C 272.58984 627.16797 273.59961 626.64062 275.06445 626.23047 L 275.06445 624.82422 L 254.45508 624.82422 L 254.45508 626.23047 C 256.56445 626.64062 257.61914 627.49023 257.61914 628.7793 C 257.61914 629.54102 257.31055 630.69727 256.69531 632.25 L 244.875 663.58398 L 232.6582 631.72266 C 232.16016 630.43359 231.91016 629.55469 231.91016 629.08594 C 231.91016 627.70898 232.90625 626.75781 234.89844 626.23047 L 234.89844 624.82422 L 213.10156 624.82422 L 213.10156 626.23047 C 215.06445 626.61133 216.04688 627.47461 216.04688 628.82227 C 216.04688 629.26172 215.76758 630.16986 215.21094 631.54688 L 202.37891 663.45117 L 190.51367 631.72266 C 190.04492 630.46289 189.81055 629.49609 189.81055 628.82227 C 189.81055 627.50391 190.73438 626.64062 192.58008 626.23047 L 192.58008 624.82422 L 171.75 624.82422 z M 489.69336 624.82422 L 489.69336 626.23047 C 490.74805 626.52344 491.48048 626.9043 491.89062 627.37305 C 492.30078 627.8418 492.50586 628.51562 492.50586 629.39453 L 492.50586 680.19531 C 492.50586 681.10352 492.3008 681.79102 491.89062 682.25977 C 491.48048 682.72852 490.74805 683.10938 489.69336 683.40234 L 489.69336 684.80859 L 507.31641 684.80859 L 507.31641 683.40234 C 506.26172 683.10938 505.5293 682.72852 505.11914 682.25977 C 504.70898 681.79102 504.50391 681.10352 504.50391 680.19531 L 504.50391 643.36914 L 526.60742 683.97461 L 549.94336 643.36914 L 549.94336 680.19531 C 549.94336 681.10352 549.72266 681.80664 549.2832 682.30469 C 548.87305 682.77344 548.15625 683.13867 547.13086 683.40234 L 547.13086 684.80859 L 565.85156 684.80859 L 565.85156 683.40234 C 564.79688 683.10938 564.06445 682.72852 563.6543 682.25977 C 563.24414 681.79102 563.03906 681.10352 563.03906 680.19531 L 563.03906 629.39453 C 563.03906 628.51562 563.24414 627.8418 563.6543 627.37305 C 564.06445 626.9043 564.79688 626.52344 565.85156 626.23047 L 565.85156 624.82422 L 543.17578 624.82422 L 543.17578 626.23047 C 544.64062 626.37695 545.37305 627.05078 545.37305 628.25195 C 545.37305 628.86719 545.00586 629.84766 544.27344 631.19531 L 527.70703 660.81445 L 511.35938 630.66797 C 510.94922 629.90625 510.74414 629.23242 510.74414 628.64648 C 510.74414 627.38672 511.43164 626.58203 512.80859 626.23047 L 512.80859 624.82422 L 489.69336 624.82422 z M 445.70508 633.91992 C 451.47656 633.97852 456.28125 635.67773 460.11914 639.01758 C 464.63086 642.91406 466.88672 648.26172 466.88672 655.05859 C 466.88672 657.8418 466.35938 660.53711 465.30469 663.14453 C 464.10352 666.07422 462.375 668.54883 460.11914 670.57031 C 456.33984 673.96875 451.56445 675.66797 445.79297 675.66797 C 440.02148 675.66797 435.23045 673.96875 431.42188 670.57031 C 426.91016 666.55664 424.6543 661.29883 424.6543 654.79492 C 424.6543 648.29102 426.91012 643.03125 431.42188 639.01758 C 435.23047 635.61914 439.99219 633.91992 445.70508 633.91992 z M 141.16406 639.94141 L 150.875 661.29883 L 131.32031 661.29883 L 141.16406 639.94141 z "
       id="text3382" />
    <flowRoot
       xml:space="preserve"
       id="flowRoot3388"
       style="fill:black;stroke:none;stroke-opacity:1;stroke-width:1px;stroke-linejoin:miter;stroke-linecap:butt;fill-opacity:1;font-family:sans-serif;font-style:normal;font-weight:normal;font-size:40px;line-height:125%;letter-spacing:0px;word-spacing:0px"><flowRegion
         id="flowRegion3390"><rect
           id="rect3392"
           width="0"
           height="54.285713"
           x="594.28571"
           y="915.21936" /></flowRegion><flowPara
         id="flowPara3394"></flowPara></flowRoot>    <path
       id="path4615"
       d="m 102.83662,450.27403 c -0.14696,10.2425 -0.17563,20.48615 -0.19385,30.72953 0.0286,2.6744 0.0334,5.34915 0.0857,8.02318 0.1247,6.37492 0.25135,7.83269 0.48214,13.97711 0.15212,4.04994 0.29202,8.01223 -0.0252,12.05028 -0.22127,0.60962 -0.0626,1.58566 -0.6638,1.82887 -1.26379,0.51125 -2.80885,0.56313 -4.088774,0.0937 -0.813623,-0.29838 -1.055564,-1.38172 -1.481379,-2.1365 -0.863077,-1.52986 -2.276955,-4.60229 -2.135636,-6.41954 0.131746,-1.69413 0.935389,-3.26724 1.403084,-4.90087 1.083438,-2.02963 2.127696,-4.08068 3.250316,-6.08891 5.626719,-10.06553 3.065369,-4.82834 8.654629,-15.19283 3.35447,-6.2204 6.35776,-12.61063 9.42441,-18.97431 0.57804,-0.93334 1.00419,-1.98 1.73412,-2.80004 1.39061,-1.56228 4.3499,0.95212 4.78513,1.64901 0.76753,1.22899 0.33165,2.87918 0.46286,4.3222 0.84863,9.3335 -0.10727,1.87281 1.32942,11.6586 0.50961,1.94685 0.93257,3.91847 1.52881,5.84056 0.90216,2.90825 2.27583,6.3587 3.7937,9.04901 1.31408,2.32913 1.9145,3.37058 4.1917,4.5679 0.24321,0.12787 -0.32851,-0.44058 -0.49276,-0.66086 0.66499,-0.71837 1.43979,-1.34887 1.99498,-2.15511 2.06527,-2.9992 3.21284,-7.02331 0.47372,-10.12678 -3.02705,-3.42969 -8.3625,-5.25704 -12.22726,-7.04106 -16.11362,-6.24309 -33.288136,-8.83378 -50.286222,-11.39698 -2.594139,-0.51849 -10.241708,-0.43978 -10.831677,-4.31608 -0.163384,-1.07348 -0.04505,-2.34238 0.624701,-3.19707 1.537786,-1.96241 3.791492,-3.23851 5.687238,-4.85776 10.865196,-6.86305 22.545071,-12.26122 34.02681,-17.9749 11.43852,-5.69217 11.2686,-5.6574 22.12284,-11.2822 0,0 2.22243,0.24425 2.22243,0.24425 l 0,0 c -10.8948,5.59236 -10.79552,5.58216 -22.23359,11.27386 -11.387242,5.66641 -22.974876,11.03017 -33.682159,17.95122 -1.818301,1.56598 -3.96965,2.81312 -5.454903,4.69793 -0.626665,0.79526 -0.761345,1.98012 -0.594392,2.97875 0.603338,3.60884 8.227578,3.60604 10.652698,4.11921 16.946257,2.63877 34.062896,5.29281 50.147316,11.48507 4.01519,1.84581 9.35926,3.63839 12.46292,7.20651 2.79016,3.20769 1.61928,7.30441 -0.41993,10.43175 -0.55385,0.84937 -1.31607,1.54297 -1.9741,2.31445 -1.64051,0.18622 -3.28958,0.80897 -4.92154,0.55864 -1.63863,-0.25134 -3.60566,-3.79069 -4.10484,-4.70405 -2.54989,-4.66558 -4.04314,-9.81949 -5.23543,-14.96885 -1.78905,-11.83158 -0.19791,-0.49337 -1.4271,-11.66437 -0.15627,-1.4202 -0.8802,-2.85201 -0.57435,-4.24767 0.19328,-0.88201 1.59313,-1.06716 1.92322,-1.90761 0.53565,-1.36381 -8.32547,4.75317 -3.14668,3.06931 -3.17272,6.3413 -6.23711,12.73618 -9.60408,18.97872 -7.89202,14.63222 -0.80039,1.03892 -8.54434,15.19251 -1.08982,1.99186 -2.1004,4.02606 -3.150598,6.03909 -1.247137,4.49879 -1.957484,4.1485 -0.55772,8.18636 0.351424,1.01375 0.857937,1.9747 1.419886,2.88869 0.422972,0.68796 1.479412,1.08202 1.517382,1.88871 0.0263,0.5593 -4.320074,0.36462 -0.70515,-1.52459 0.40436,-4.05603 0.33012,-7.93529 0.21897,-12.01705 -0.20105,-7.38376 -0.26273,-6.18173 -0.40066,-13.98372 -0.0473,-2.67499 -0.0568,-5.35051 -0.0852,-8.02577 -0.0182,-10.24338 -0.0469,-20.48703 -0.19385,-30.72953 0,0 2.8161,0 2.8161,0 z"
       inkscape:connector-curvature="0" />
  </g>
</svg>
