<?xml version="1.0" encoding="UTF-8" standalone="no"?>
<!-- Created with Inkscape (http://www.inkscape.org/) -->

<svg
   xmlns:dc="http://purl.org/dc/elements/1.1/"
   xmlns:cc="http://creativecommons.org/ns#"
   xmlns:rdf="http://www.w3.org/1999/02/22-rdf-syntax-ns#"
   xmlns:svg="http://www.w3.org/2000/svg"
   xmlns="http://www.w3.org/2000/svg"
   xmlns:sodipodi="http://sodipodi.sourceforge.net/DTD/sodipodi-0.dtd"
   xmlns:inkscape="http://www.inkscape.org/namespaces/inkscape"
   width="50"
   height="50"
   viewBox="0 0 50.000001 50.000001"
   id="svg3395"
   version="1.1"
   inkscape:version="0.91 r13725"
   sodipodi:docname="signature.svg">
  <defs
     id="defs3397">
    <filter
       style="color-interpolation-filters:sRGB;"
       inkscape:label="Drop Shadow"
       id="filter4482">
      <feFlood
         flood-opacity="1"
         flood-color="rgb(0,0,0)"
         result="flood"
         id="feFlood4484" />
      <feComposite
         in="flood"
         in2="SourceGraphic"
         operator="out"
         result="composite1"
         id="feComposite4486" />
      <feGaussianBlur
         in="composite1"
         stdDeviation="0.1"
         result="blur"
         id="feGaussianBlur4488" />
      <feOffset
         dx="0.3"
         dy="0.3"
         result="offset"
         id="feOffset4490" />
      <feComposite
         in="offset"
         in2="SourceGraphic"
         operator="atop"
         result="fbSourceGraphic"
         id="feComposite4492" />
      <feColorMatrix
         result="fbSourceGraphicAlpha"
         in="fbSourceGraphic"
         values="0 0 0 -1 0 0 0 0 -1 0 0 0 0 -1 0 0 0 0 1 0"
         id="feColorMatrix3870" />
      <feFlood
         id="feFlood3872"
         flood-opacity="1"
         flood-color="rgb(0,0,0)"
         result="flood"
         in="fbSourceGraphic" />
      <feComposite
         id="feComposite3874"
         in2="fbSourceGraphic"
         in="flood"
         operator="out"
         result="composite1" />
      <feGaussianBlur
         id="feGaussianBlur3876"
         in="composite1"
         stdDeviation="0.4"
         result="blur" />
      <feOffset
         id="feOffset3878"
         dx="0.2"
         dy="0.2"
         result="offset" />
      <feComposite
         id="feComposite3880"
         in2="fbSourceGraphic"
         in="offset"
         operator="atop"
         result="composite2" />
    </filter>
  </defs>
  <sodipodi:namedview
     id="base"
     pagecolor="#ffffff"
     bordercolor="#666666"
     borderopacity="1.0"
     inkscape:pageopacity="0.0"
     inkscape:pageshadow="2"
     inkscape:zoom="9.21"
     inkscape:cx="6.6234021"
     inkscape:cy="23.468048"
     inkscape:document-units="px"
     inkscape:current-layer="layer1"
     showgrid="false"
     units="px"
     inkscape:window-width="1366"
     inkscape:window-height="746"
     inkscape:window-x="-8"
     inkscape:window-y="-8"
     inkscape:window-maximized="1" />
  <metadata
     id="metadata3400">
    <rdf:RDF>
      <cc:Work
         rdf:about="">
        <dc:format>image/svg+xml</dc:format>
        <dc:type
           rdf:resource="http://purl.org/dc/dcmitype/StillImage" />
        <dc:title></dc:title>
      </cc:Work>
    </rdf:RDF>
  </metadata>
  <g
     inkscape:groupmode="layer"
     id="layer2"
     inkscape:label="Layer 2">
    <ellipse
       style="fill:#3771c8"
       id="path3418"
       cx="24.990946"
       cy="25.047012"
       rx="24.748505"
       ry="24.761148" />
  </g>
  <g
     inkscape:label="Layer 1"
     inkscape:groupmode="layer"
     id="layer1"
     transform="translate(0,-1002.3622)">
    <path
       id="path3356-0"
       d="m 19.345149,1009.5364 c 0.758462,2.7715 1.7006,5.4962 2.258618,8.3196 0.152355,0.7704 0.259817,1.549 0.389676,2.3235 0.691954,4.2493 0.41628,8.5509 0.02667,12.8122 -0.302636,2.6947 -0.468722,5.4231 -1.189427,8.0499 -0.178398,0.6493 -0.36227,1.3004 -0.621019,1.922 -0.243446,0.5845 -0.586786,1.1223 -0.880191,1.6835 -0.739112,0.9331 -1.183424,1.6686 -2.196761,2.3167 -0.359508,0.23 -0.761023,0.4082 -1.176928,0.5039 -1.141486,0.2626 -3.534455,-0.5325 -4.083974,-0.7961 -0.340396,-0.1634 -0.429958,-0.6209 -0.644887,-0.9313 -0.137101,-0.4142 -0.355809,-0.8098 -0.411217,-1.2425 -0.280096,-2.1881 1.083787,-4.1958 2.159004,-5.9543 1.037896,-1.6973 2.157453,-3.3433 3.231764,-5.0178 2.889806,-4.4379 4.727383,-9.4024 6.454026,-14.3737 0.188677,-0.5645 0.374058,-1.13 0.56602,-1.6934 0.125578,-0.3689 0.229607,-0.7467 0.386687,-1.1033 0.525597,-1.1936 2.421779,1.2633 2.491542,1.3884 0.426116,0.7636 0.03996,1.7494 0.113159,2.6206 0.102542,1.2212 0.275935,2.4354 0.413909,3.6531 0.244522,1.3278 0.431378,2.6675 0.733565,3.9834 0.47914,2.0863 1.407118,5.2145 2.331529,7.1962 0.424438,0.9098 1.441041,4.0108 2.925539,3.8001 0,0 -0.900102,0.6972 -0.395213,0.01 1.611911,0.067 2.255576,-0.329 2.824853,-0.7482 1.313856,-0.9675 2.292858,-2.4753 3.060775,-3.8708 0.633213,-1.1504 1.559696,-3.2904 1.865699,-4.5993 0.18117,-0.774 0.210645,-1.5759 0.311001,-2.3645 -0.02902,-0.7637 0.02367,-1.5349 -0.08715,-2.291 -0.214537,-1.4636 -0.727633,-2.8467 -1.650563,-4.0194 -0.898293,-1.1413 -2.397226,-2.2214 -3.6351,-2.9416 -0.673516,-0.3919 -1.396952,-0.6909 -2.095428,-1.0364 -0.720606,-0.2 -1.091269,-0.3123 -1.835843,-0.3827 -0.184485,-0.013 -0.583955,0.06 -0.751305,0.1383 -0.847476,0.3976 -1.76981,0.6293 -2.59942,1.0632 -1.767542,0.9243 -3.333977,2.2336 -4.935616,3.3998 -0.730924,0.532 -1.474175,1.0469 -2.211269,1.5704 -0.696963,0.4213 -1.369428,0.8861 -2.090903,1.264 -1.710497,0.8959 -3.802482,1.6891 -5.752892,1.804 -1.638793,0.096 -3.1621932,-0.5022 -4.7297287,-0.8944 -0.1237364,-0.4725 -0.4557095,-0.9365 -0.3711967,-1.4176 0.3474476,-1.9775 2.2539899,-3.5101 3.6677644,-4.5981 1.249928,-0.9618 2.608094,-1.7761 3.950144,-2.6046 3.090848,-1.9083 5.585316,-3.1852 8.779697,-4.8994 3.466786,-1.8134 6.924922,-3.6413 10.355935,-5.5213 l 1.814624,0.4094 0,0 c -3.522108,1.8371 -7.066865,3.6295 -10.587862,5.4689 -3.185909,1.7023 -5.676397,2.9582 -8.734274,4.8925 -1.298161,0.8212 -2.604632,1.6419 -3.801562,2.6047 -1.288583,1.0366 -3.0768098,2.5702 -3.3479949,4.4285 -0.06441,0.4269 0.3691799,1.2034 0.4993659,1.6149 -0.2939813,0.08 -1.2522655,-0.5671 -0.9904531,-0.4112 0.4351309,0.2594 1.0073471,0.423 1.5137171,0.4079 1.960346,-0.06 4.092053,-0.8334 5.819542,-1.7068 0.731553,-0.3699 1.41524,-0.8278 2.122867,-1.2418 3.048646,-2.1224 1.509544,-1.0168 4.613213,-3.3228 1.02473,-0.717 3.740127,-2.6265 5.114142,-2.8286 3.032078,-0.4461 3.990251,0.036 6.465197,0.7693 0.697352,0.3543 1.420509,0.6619 2.092032,1.0631 1.249164,0.7463 2.754563,1.8635 3.651615,3.0329 0.928454,1.2101 1.425584,2.6164 1.629938,4.1132 0.104783,0.7672 0.04696,1.5479 0.07044,2.3218 -0.102036,0.8017 -0.12926,1.6176 -0.316014,2.4039 -0.299265,1.2575 -1.302272,3.5338 -1.898186,4.6391 -0.77817,1.4435 -1.709628,2.9454 -3.022602,3.9843 -0.572229,0.4527 -1.275584,0.7087 -1.913332,1.0632 -1.317708,-0.1849 -2.701442,-0.102 -3.95315,-0.5536 -1.600079,-0.5768 -2.666421,-2.8428 -3.244896,-4.1534 -0.481672,-1.0913 -0.856062,-2.2288 -1.213209,-3.3671 -1.063485,-3.3895 -1.150188,-4.3549 -1.833181,-7.8509 -0.184593,-1.2261 -0.38993,-2.4491 -0.55369,-3.678 -0.116758,-0.8758 -0.670223,-1.8387 -0.287706,-2.6352 0.437002,-0.454 1.390131,-0.467 1.390131,-0.467 -0.25127,0.3941 -0.694649,2.2197 -0.756836,2.39 -0.274321,0.7629 -1.273621,3.5566 -1.548122,4.2561 -1.380164,3.5162 -3.029165,6.934 -5.024837,10.1435 -0.147014,0.2308 -3.019057,4.7351 -3.184276,5.0147 -1.004797,1.7002 -2.291266,3.7119 -1.954599,5.8063 0.06666,0.4149 0.184414,1.005 0.331074,1.3988 1.703569,2.1843 0.413894,1.0042 0.413894,1.0042 -0.150044,0.3331 -0.19115,0.074 0.169522,0.017 1.54044,-0.244 2.583716,-1.6344 3.479279,-2.7694 0.29716,-0.5488 0.645405,-1.0728 0.891383,-1.6464 0.263196,-0.6138 0.452163,-1.2582 0.630239,-1.9017 0.723995,-2.6171 0.846341,-5.3431 1.184666,-8.0237 0.382154,-4.2439 0.667661,-8.5221 0.002,-12.7572 -0.132163,-0.7706 -0.239545,-1.5459 -0.396699,-2.3119 -0.582579,-2.8386 -1.55347,-5.5846 -2.51391,-8.3121 l 2.227768,0.1724 z"
       inkscape:connector-curvature="0"
       style="fill:#ffffff;filter:url(#filter4482)"
       sodipodi:nodetypes="ccccccccccccccccccccccccsccccccccccccccccccccccccccccccccccsccccccccssccccccccccccccccccccc" />
  </g>
</svg>
